<?xml version="1.0" encoding="utf-8"?>
<!-- Generator: Adobe Illustrator 24.3.0, SVG Export Plug-In . SVG Version: 6.00 Build 0)  -->
<svg version="1.1" id="Слой_1" xmlns="http://www.w3.org/2000/svg" xmlns:xlink="http://www.w3.org/1999/xlink" x="0px" y="0px"
	 viewBox="0 0 479.9 448" style="enable-background:new 0 0 479.9 448;" xml:space="preserve">
<style type="text/css">
	.st0{fill:#707070;}
</style>
<path class="st0" d="M245.5,69.3c-3.1-3-8-3-11.1,0L50.3,245.1c-1.6,1.5-2.5,3.6-2.5,5.8V416c0,17.7,14.3,32,32,32h96.1
	c8.8,0,16-7.2,16-16V296c0-4.4,3.6-8,8-8h80c4.4,0,8,3.6,8,8v136c0,8.8,7.2,16,16,16H400c17.7,0,32-14.3,32-32V250.9
	c0-2.2-0.9-4.3-2.5-5.8L245.5,69.3z"/>
<path class="st0" d="M474.8,212.1L400,140.5V32c0-8.8-7.2-16-16-16h-48c-8.8,0-16,7.2-16,16v32L262.1,8.6C256.7,3.1,248.6,0,239.9,0
	l0,0c-8.7,0-16.7,3.1-22.1,8.6L5.1,212.1c-6.2,6-7,15.9-1.3,22.4c5.8,6.7,15.9,7.4,22.6,1.6c0.2-0.2,0.4-0.4,0.6-0.6L234.4,37.3
	c3.1-3,8-3,11.1,0L453,235.6c6.4,6.1,16.5,5.9,22.6-0.4C481.7,228.8,481.2,218.3,474.8,212.1z"/>
</svg>
