<svg xmlns="http://www.w3.org/2000/svg" width="182" height="157.054" viewBox="0 0 182 157.054"><g transform="translate(-196 -3013.957)"><rect width="182" height="150" transform="translate(196 3017)" fill="#909090"/><g transform="translate(207 3014.856)"><g transform="translate(54.315 27.681)"><path d="M138.006,180.509A50.468,50.468,0,1,0,87.535,130.04a50.47,50.47,0,0,0,50.471,50.468" transform="translate(-87.535 -79.572)" fill="none" stroke="#fff" stroke-miterlimit="10" stroke-width="1.8"/></g><g transform="translate(27.158 0)"><path d="M127.06,169.354a50.468,50.468,0,1,0-50.469-50.468,50.467,50.467,0,0,0,50.469,50.468" transform="translate(-76.591 -68.417)" fill="none" stroke="#fff" stroke-miterlimit="10" stroke-width="1.8"/></g><g transform="translate(0 27.681)"><path d="M116.116,180.509A50.468,50.468,0,1,0,65.647,130.04a50.47,50.47,0,0,0,50.469,50.468" transform="translate(-65.647 -79.572)" fill="none" stroke="#fff" stroke-miterlimit="10" stroke-width="1.8"/></g><g transform="translate(27.158 54.317)"><path d="M127.06,191.243a50.468,50.468,0,1,0-50.469-50.468,50.468,50.468,0,0,0,50.469,50.468" transform="translate(-76.591 -90.306)" fill="none" stroke="#fff" stroke-miterlimit="10" stroke-width="1.8"/></g></g></g></svg>