<?xml version="1.0" encoding="utf-8"?>
<!-- Generator: Adobe Illustrator 17.1.0, SVG Export Plug-In . SVG Version: 6.00 Build 0)  -->
<!DOCTYPE svg PUBLIC "-//W3C//DTD SVG 1.1//EN" "http://www.w3.org/Graphics/SVG/1.1/DTD/svg11.dtd">
<svg version="1.1" id="Capa_1" xmlns="http://www.w3.org/2000/svg" xmlns:xlink="http://www.w3.org/1999/xlink" x="0px" y="0px"
	 viewBox="0 0 25 25" enable-background="new 0 0 25 25" xml:space="preserve">
<g>
	<g>
		<path fill="#898989" d="M24.7,23.2l-7.1-7.1c1.4-1.7,2.2-3.9,2.2-6.2c0-5.5-4.4-9.9-9.9-9.9S0,4.4,0,9.9s4.4,9.9,9.9,9.9
			c2.4,0,4.5-0.8,6.2-2.2l7.1,7.1c0.2,0.2,0.5,0.3,0.7,0.3s0.5-0.1,0.7-0.3C25.1,24.3,25.1,23.6,24.7,23.2z M9.9,17.7
			c-4.3,0-7.8-3.5-7.8-7.8s3.5-7.8,7.8-7.8s7.8,3.5,7.8,7.8S14.2,17.7,9.9,17.7z"/>
	</g>
</g>
</svg>
