<svg xmlns="http://www.w3.org/2000/svg" width="207.982" height="207.844" viewBox="0 0 207.982 207.844"><g transform="translate(-223.419 -355.941)"><path d="M369.138,408.593l-20.784,4.8a82.54,82.54,0,0,1-24.322,74.745l13.99,16.092a103.907,103.907,0,0,0,31.116-95.637Z" transform="translate(60.381 31.598)" fill="#153252"/><path d="M366.623,437.527l20.786-4.8a104.035,104.035,0,0,0-96.68-76.787v21.307A82.731,82.731,0,0,1,366.623,437.527Z" transform="translate(40.395 0)" fill="#153252"/><path d="M323.426,377.251V355.944a104,104,0,0,0-99.939,98.275l21.335.373A82.7,82.7,0,0,1,323.426,377.251Z" transform="translate(0.04 0.002)" fill="#153252"/><path d="M290.729,500.471a103.52,103.52,0,0,0,61.5-22.931l-13.993-16.1a82.29,82.29,0,0,1-47.508,17.721Z" transform="translate(40.395 63.314)" fill="#153252"/><path d="M244.736,422.518l-21.317-.371a103.982,103.982,0,0,0,100.047,101.9V502.741A82.692,82.692,0,0,1,244.736,422.518Z" transform="translate(0 39.732)" fill="#153252"/></g></svg>