<svg xmlns="http://www.w3.org/2000/svg" width="212.96" height="212.551" viewBox="0 0 212.96 212.551"><g transform="translate(-223.361 -102.755)"><path d="M303.475,102.755a98.828,98.828,0,0,0-44.4,11.485l10.577,19.081a84,84,0,0,1,33.828-8.663Z" transform="translate(22.746)" fill="#153252"/><path d="M281.728,131.086,271.16,112.02a101.532,101.532,0,0,0-41.494,46.086l19.988,8.486A84.818,84.818,0,0,1,281.728,131.086Z" transform="translate(4.016 5.902)" fill="#153252"/><path d="M250.716,152.893l-19.888-8.45c-9.3,23.561-9.909,46.785-1.851,70.8l20.285-7.391a84.733,84.733,0,0,1,1.454-54.962Z" transform="translate(0 26.554)" fill="#153252"/><path d="M248.533,187.585,228.65,194.8a96.288,96.288,0,0,0,8.594,16.92c30.345,48.438,93.941,63.822,143.047,35.148l-11.7-18.673a84.458,84.458,0,0,1-120.061-40.612Z" transform="translate(3.369 54.035)" fill="#153252"/><path d="M290.833,102.758v21.906a84.453,84.453,0,0,1,43.943,153.915L346.3,297.112c30.364-20.172,47.04-51.411,47.04-88.3C393.344,151.348,347.636,104.408,290.833,102.758Z" transform="translate(42.978 0.002)" fill="#153252"/></g></svg>