<?xml version="1.0" encoding="utf-8"?>
<!-- Generator: Adobe Illustrator 24.3.0, SVG Export Plug-In . SVG Version: 6.00 Build 0)  -->
<svg version="1.1" id="Слой_1" xmlns="http://www.w3.org/2000/svg" xmlns:xlink="http://www.w3.org/1999/xlink" x="0px" y="0px"
	 viewBox="0 0 15.5 15.5" style="enable-background:new 0 0 15.5 15.5;" xml:space="preserve">
<style type="text/css">
	.st0{fill:#707070;}
</style>
<path class="st0" d="M15,12.1c-0.8-0.7-1.7-1.3-2.7-1.8c-0.8-0.4-1.1-0.4-1.7,0c-0.5,0.3-0.8,0.7-1.3,0.5c-1-0.5-2-1.1-2.7-2
	c-0.9-0.7-1.5-1.7-2-2.7C4.5,5.6,4.8,5.3,5.1,4.8c0.4-0.6,0.4-0.9,0-1.7c-0.5-1-1.1-1.9-1.8-2.7C2.8-0.1,2.6,0,2.3,0.1
	C2,0.2,1.7,0.4,1.3,0.6C0.8,0.9,0.4,1.3,0.2,1.8C0,2.3-0.3,3.3,1,5.7c1,1.8,2.3,3.5,3.8,5l0,0l0,0l0,0l0,0c1.5,1.5,3.2,2.8,5,3.8
	c2.4,1.4,3.3,1.1,3.8,0.9c0.5-0.3,0.9-0.7,1.2-1.2c0.2-0.3,0.4-0.6,0.5-1C15.5,12.9,15.6,12.7,15,12.1z"/>
</svg>
