<?xml version="1.0" encoding="utf-8"?>
<!-- Generator: Adobe Illustrator 24.3.0, SVG Export Plug-In . SVG Version: 6.00 Build 0)  -->
<svg version="1.1" id="Слой_1" xmlns="http://www.w3.org/2000/svg" xmlns:xlink="http://www.w3.org/1999/xlink" x="0px" y="0px"
	 viewBox="0 0 197.3 109.4" style="enable-background:new 0 0 197.3 109.4;" xml:space="preserve">
<style type="text/css">
	.st0{fill:#6D6D6D;}
	.st1{fill:#85868A;}
</style>
<g transform="translate(0 393.2)">
	<g>
		<g>
			<g transform="translate(0 -393.2)">
				<g transform="translate(45.226 38.784)">
					<path d="M96.4,2.2c0-1.1,0-1.1,1-1.1c1.8,0,2.9,1.3,2.9,3.3c0.1,0.9-0.2,1.8-0.8,2.4c-0.4,0.5-1.1,0.7-1.7,0.6
						c-1.3,0-1.4-0.1-1.4-0.9V2.2z M93.4,11.7c0,2.1-0.1,2.2-1.1,2.4l-0.6,0.1c-0.2,0.2-0.2,0.6,0,0.8c1.2,0,2.2-0.1,3.3-0.1
						c1.1,0,2.1,0,3.3,0.1c0.2-0.2,0.2-0.5,0-0.8l-0.6-0.1c-1-0.2-1.1-0.3-1.1-2.4V8.9c0-0.4,0-0.5,0.8-0.5c0.5,0,1,0.3,1.2,0.8
						c0.5,1.2,1.1,2.4,1.8,3.5c0.9,1.6,2.6,2.5,4.4,2.4c0.6,0,1.2,0,1.8-0.2c0.1-0.2,0.1-0.4-0.1-0.6c-0.6-0.1-1.1-0.3-1.5-0.6
						c-1.1-0.9-2-2.6-3.5-5.6c-0.1-0.2-0.1-0.4,0.1-0.5c1.4-0.5,2.4-1.9,2.4-3.4c0-1.4-0.7-2.7-2-3.3c-1.4-0.6-2.9-0.9-4.4-0.8
						c-2.1,0-3.9,0.1-5.6,0.2c-0.2,0.2-0.3,0.5-0.1,0.7c0,0,0,0,0.1,0.1l0.6,0.1c0.9,0.1,1,0.4,1,2.6L93.4,11.7z M80.2,2
						c0-0.8,0-0.9,0.7-0.9h1.8C83.6,1,84.4,1.3,85,1.8c0.4,0.5,0.7,1.1,0.9,1.8c0.2,0.2,0.7,0.2,0.8-0.1C86.6,2,86.4,0.4,86.4,0
						c-0.3,0-1.6,0.1-3,0.1h-4.8c-1.1,0-2.2,0-3.2-0.1c-0.2,0.2-0.2,0.6,0,0.8L76,0.9c1,0.2,1.1,0.3,1.1,2.4v8.4
						c0,2.1-0.1,2.2-1.1,2.4l-1.1,0.2c-0.2,0.2-0.2,0.6,0,0.8c1.7,0,2.8-0.1,3.9-0.1h2.9c1.8,0,4,0,5.2,0.1c0.5-1.1,0.8-2.4,0.9-3.6
						c-0.2-0.3-0.5-0.3-0.8-0.2c0,0-0.1,0-0.1,0.1c-1.2,2.5-2,2.6-4,2.6c-1.6,0-2.1-0.2-2.4-0.6c-0.3-0.7-0.4-1.4-0.4-2.1V8.5
						c0-0.7,0-0.7,0.6-0.7h1.6c1.2,0,1.4,0.2,1.7,1.3l0.1,0.6c0.2,0.2,0.6,0.2,0.8,0C85,8.9,85,8,85,7.2s0-1.7,0.1-2.4
						c-0.1-0.2-0.7-0.2-0.8,0l-0.1,0.6c-0.2,1.1-0.5,1.2-1.7,1.2h-1.6c-0.6,0-0.6,0-0.6-0.7L80.2,2z M69,5.7c-0.1-1.4,0-2.8,0.3-4.1
						c0.2-0.5,0.7-0.7,1.2-0.7L71,0.8c0.2-0.2,0.2-0.5,0-0.8c-0.9,0-1.7,0.1-2.5,0.1c-0.9,0-1.8,0-3-0.1c-0.2,0.2-0.2,0.5,0,0.8
						l0.6,0.1c0.6,0.1,1.1,0.2,1.3,0.7c0.3,1.4,0.4,2.7,0.3,4.1v3.1c0,0.3,0,0.7-0.1,1c-0.5-0.5-1.2-1.3-2.2-2.5l-1.9-2.2
						C61.5,2.7,60,1,59.8,0c-0.5,0-1.1,0.1-1.9,0.1c-0.9,0-2,0-3.1-0.1c-0.2,0.1-0.2,0.6-0.1,0.8l0.6,0.1c0.8,0.1,1.1,0.4,1.3,0.8
						c0.2,0.6,0.2,1.3,0.2,1.9v5.7c0.1,1.4,0,2.8-0.3,4.1c-0.2,0.5-0.6,0.6-1.2,0.7l-0.4,0.1c-0.2,0.2-0.2,0.5,0,0.8
						c0.9,0,1.7-0.1,2.5-0.1c0.9,0,1.8,0,3,0.1c0.2-0.2,0.2-0.5,0-0.8l-0.6-0.1c-0.6-0.1-1.1-0.2-1.3-0.7c-0.3-1.4-0.4-2.7-0.3-4.1
						V4.9c-0.1-0.5,0-1,0.1-1.4c0.9,0.9,1.7,1.9,2.5,2.9l5.2,6.4c1.1,1.3,1.8,2.5,1.8,2.5c0.5,0,1-0.2,1.3-0.5c0-0.7,0-2.2,0-3.6
						L69,5.7z M43.7,2c0-0.8,0-0.9,0.7-0.9h1.8C47,1,47.8,1.3,48.4,1.8c0.4,0.5,0.7,1.1,0.9,1.8c0.2,0.2,0.7,0.2,0.8-0.1
						C50,2,49.9,0.4,49.8,0c-0.3,0-1.6,0.1-3,0.1H42c-1.1,0-2.2,0-3.2-0.1c-0.2,0.2-0.2,0.6,0,0.8l0.6,0.1c1,0.2,1.1,0.3,1.1,2.4
						v8.4c0,2.1-0.1,2.2-1.1,2.4l-1.1,0.2c-0.2,0.2-0.2,0.6,0,0.8c1.7,0,2.8-0.1,3.9-0.1h2.9c1.8,0,4,0,5.2,0.1
						c0.5-1.1,0.8-2.4,0.9-3.6c-0.2-0.3-0.5-0.3-0.8-0.2c0,0-0.1,0-0.1,0.1c-1.2,2.5-2,2.6-4,2.6c-1.6,0-2.1-0.2-2.4-0.6
						c-0.3-0.7-0.4-1.4-0.4-2.1V8.5c0-0.7,0-0.7,0.6-0.7h1.6c1.2,0,1.4,0.2,1.7,1.3l0.1,0.6c0.2,0.2,0.6,0.2,0.8,0
						c0-0.7-0.1-1.5-0.1-2.4s0-1.7,0.1-2.4c-0.1-0.2-0.7-0.2-0.8,0l-0.1,0.6c-0.2,1.1-0.5,1.2-1.7,1.2h-1.5c-0.6,0-0.6,0-0.6-0.7
						L43.7,2z M32.2,3.4c0-2.1,0.1-2.3,1.2-2.5L34,0.8c0.2-0.2,0.2-0.6,0-0.8c-1.2,0-2.3,0.1-3.4,0.1s-2.2,0-3.4-0.1
						c-0.2,0.2-0.2,0.6,0,0.8l0.6,0.1c1,0.2,1.2,0.3,1.2,2.5v8.3c0,2.1-0.1,2.3-1.2,2.5l-0.6,0.1c-0.2,0.2-0.2,0.6,0,0.8
						c1.2,0,2.3-0.1,3.4-0.1s2.2,0,3.4,0.1c0.2-0.2,0.2-0.6,0-0.8l-0.6-0.1c-1-0.2-1.2-0.3-1.2-2.5V3.4z M23.5,0.8
						c0.2-0.2,0.1-0.7-0.1-0.8c-0.6,0-1.3,0.1-2.1,0.1c-0.7,0-1.6,0-2.3-0.1c-0.2,0.2-0.2,0.5-0.1,0.8l0.5,0.1
						c0.3,0.1,0.7,0.2,0.7,0.4c-0.1,0.6-0.3,1.2-0.6,1.8c-1.1,2.7-2.3,5.6-3.4,8.2c-0.1-0.3-0.5-1-1-2.3L14,6.7
						c-0.1-0.2-0.2-0.4-0.2-0.6c0.1-0.4,0.3-0.8,0.5-1.2c0.3-0.6,0.9-1.7,1.4-2.6C16.5,1,16.6,1,17.4,0.8L18,0.7
						c0.2-0.2,0.2-0.6,0-0.8c-0.6,0-1.4,0.1-2.3,0.1c-0.7,0-1.6,0-2.2-0.1c-0.2,0.2-0.2,0.5-0.1,0.8l0.8,0.2
						c0.4,0.1,0.5,0.2,0.5,0.3c-0.2,0.6-0.4,1.1-0.7,1.7l-0.2,0.4c-0.2,0.5-0.5,1.1-0.7,1.5c-0.2-0.4-0.5-1-0.7-1.5l-0.7-1.6
						c-0.1-0.2-0.2-0.4-0.2-0.7c0-0.2,0.3-0.2,0.6-0.3l0.4-0.1c0.2-0.1,0.2-0.7-0.1-0.8C12,0,11.1,0.1,10,0.1C9,0.1,8.1,0,7.1,0
						c-0.2,0.1-0.3,0.6,0,0.8h0.2c0.9,0.1,1,0.2,1.5,1.4L11,6.9c0.1,0.3,0.2,0.5,0.2,0.8c0,0.3-0.1,0.5-0.2,0.8l-0.3,0.7
						c-0.4,0.8-0.9,1.9-1.1,2.3C9.3,11,9,10.3,8.3,8.9L6.1,4C5.7,3.1,5.3,2.1,4.9,1.2c0-0.2,0.2-0.3,0.6-0.3l0.4-0.1
						C6.1,0.6,6,0.1,5.9,0C5,0,4.1,0.1,3.1,0.1C2,0.1,1,0,0.2,0C0,0.1-0.1,0.6,0.1,0.8l0.6,0.1c0.7,0.2,0.9,0.3,1.5,1.6l3.7,8
						c0.8,1.7,1.7,3.7,2,4.7c0.2,0.1,0.4,0.2,0.6,0.2c0.3,0,0.5,0,0.7-0.2c0.4-0.7,0.6-1.4,0.9-2.1l1.1-2.3c0.3-0.6,0.6-1.2,0.8-1.6
						c0.2,0.3,0.5,1,0.8,1.7l0.9,2.1c0.3,0.6,0.6,1.4,0.9,2c0.2,0.1,0.4,0.2,0.6,0.2c0.3,0,0.5,0,0.7-0.2c1.1-2.9,3.6-8.5,4.7-11.2
						c0.3-0.9,0.8-1.7,1.2-2.5c0.3-0.3,0.6-0.4,1-0.5L23.5,0.8z"/>
				</g>
			</g>
		</g>
	</g>
	<path d="M74.3-370.5H97v-22.7H74.3V-370.5z"/>
	<path class="st0" d="M100-370.5h22.7v-22.7H100V-370.5z"/>
	<path class="st1" d="M74.2-309.6h48.4v-1.1H74.2V-309.6z"/>
	<g>
		<g>
			<g transform="translate(0 -393.2)">
				<g transform="translate(35.77 94.543)">
					<path class="st1" d="M123.4,9.4c-0.5,0-0.9,0.4-0.9,0.9c0,0.3,0.2,0.7,0.5,0.7h0.1c0.5,0,0.9-0.4,0.9-0.9l0,0
						C124.1,9.7,123.8,9.4,123.4,9.4L123.4,9.4 M120.6,5.1c0.3,0,0.5,0.2,0.5,0.5l0,0c-0.2,1-0.7,2-1.4,2.8c-0.2,0.3-0.6,0.6-1,0.6
						c-0.3,0-0.5-0.2-0.5-0.5l0,0c0.2-1,0.7-2,1.4-2.8C120,5.2,120.3,5.1,120.6,5.1 M118.7,14.4c-1,0-2-0.5-2-1.2
						c0-0.4,0.2-0.8,0.6-1c0.4-0.3,0.9-0.5,1.4-0.6c0.5,0.2,1,0.4,1.4,0.8c0.5,0.3,0.6,0.7,0.6,0.9
						C120.7,14.1,119.4,14.4,118.7,14.4 M120.8,4.6c-0.8,0-1.6,0.3-2.2,0.9c-0.7,0.6-1.2,1.6-1.2,2.5c0,0.7,0.5,1.2,1.1,1.4
						c-0.3,0.3-0.5,0.7-0.7,1.2c0,0.2,0.1,0.4,0.5,0.7c-0.8,0.3-2.6,1-2.6,2.1c0,1,1.3,1.4,2.4,1.4c2.5,0,3.7-1,3.7-1.8
						c0-0.5-0.3-1-1.1-1.5c-0.5-0.3-1.1-0.7-1.5-0.9c-0.3-0.1-0.5-0.4-0.5-0.7c0-0.2,0.1-0.4,0.3-0.5c0.4-0.1,0.7-0.2,1.1-0.4
						c1.1-0.6,1.8-1.8,1.9-3c0-0.2,0-0.4-0.1-0.6l0.1-0.1c0.2,0,0.4,0,0.6,0.1c0.2,0,0.3,0.1,0.5,0.1s0.3-0.1,0.3-0.5
						c0-0.2-0.1-0.4-0.3-0.4c-0.2,0-0.5,0.1-0.7,0.1c-0.2,0.1-0.5,0.1-0.7,0.1c-0.1,0-0.2-0.1-0.4-0.1
						C121.1,4.7,120.9,4.7,120.8,4.6 M116.3,1.5c-0.6,0-0.8,0.6-0.8,1c0,0.3,0.2,0.5,0.5,0.6c0,0,0,0,0.1,0c0.5-0.1,0.8-0.5,0.8-0.9
						C116.8,1.8,116.7,1.5,116.3,1.5 M113.1,10.5c-0.1,0.1,0,0.3,0.1,0.4c0.1,0.1,0.1,0.1,0.2,0.1c1.1-0.2,2.1-0.9,2.8-1.8
						c0-0.1-0.1-0.2-0.2-0.3l0,0c-0.4,0.5-1,0.9-1.6,1.1c-0.1,0-0.1-0.2,0-0.3l1.8-4.3c0.2-0.4,0.2-0.6,0.1-0.7s-0.1-0.2-0.2-0.2
						c-1,0.2-1.9,0.7-2.5,1.5c0,0.1,0.1,0.2,0.2,0.3l0,0c0.4-0.4,0.8-0.6,1.3-0.8c0.1,0,0.1,0.1,0,0.3L113.1,10.5z M113.1,5.6
						c0.2-0.1,0.3-0.4,0.2-0.6h-1.6l0.4-1.5c-0.2-0.1-0.4-0.2-0.6-0.1l-0.8,1.5l-1.2,0.2c-0.1,0.1-0.2,0.3-0.2,0.4h1.2l-1.4,4.2
						c-0.1,0.3-0.2,0.6-0.2,0.9c0,0.2,0.2,0.4,0.4,0.4c1.2-0.3,2.2-1.1,2.9-2.2c0-0.2-0.1-0.3-0.2-0.3c-0.5,0.6-1.1,1-1.7,1.4
						c-0.1,0-0.2-0.1-0.1-0.4l1.4-4L113.1,5.6z M105.7,4.6c-0.7,0-1.3,0.6-1.8,1.4c0,0.2,0.1,0.3,0.2,0.2c0.3-0.4,0.7-0.8,1.1-0.8
						c0.1,0,0.2,0.2,0.1,0.3c-0.4,1.5-1.4,4.2-1.6,4.8c-0.1,0.3,0.3,0.4,0.5,0.4c0.1,0,0.2-0.1,0.3-0.2c0.7-1.7,1.5-3.3,2.6-4.8
						c0.2-0.3,0.4-0.5,0.5-0.5c0.2,0,0.2,0.2,0.3,0.6c0.1,0.3,0.3,0.3,0.5,0.1c0.2-0.3,0.3-0.6,0.3-0.9c0-0.2-0.1-0.7-0.6-0.7
						c-0.4,0-0.8,0.3-1.1,0.8c-0.6,0.8-1.1,1.7-1.6,2.5h-0.1l0.6-1.9C106.2,5.7,106.4,4.6,105.7,4.6 M100.6,5.4
						c0.3,0,0.6,0.2,0.8,0.5c-0.4,1.2-1.1,2.4-2,3.3c-0.9,0.8-1.3,1-1.5,1s-0.2-0.1-0.2-0.3C97.9,8.4,98.5,7,99.6,6
						C100,5.6,100.3,5.4,100.6,5.4 M101.8,5.3c-0.1-0.1-0.2-0.2-0.3-0.3c-0.1-0.1-0.2-0.1-0.4-0.1c-0.5,0-1,0.2-1.4,0.4
						c-0.8,0.5-1.5,1.2-2,1.9c-0.7,0.9-1.1,1.9-1.3,2.9c-0.1,0.4,0.2,0.8,0.7,0.8l0,0c0.7,0,2.2-1,3.3-2.4l0,0L99.9,10
						c-0.1,0.2-0.1,0.4-0.2,0.6c0,0.2,0.2,0.4,0.4,0.4l0,0c1-0.2,2-0.8,2.5-1.7c0-0.1-0.1-0.2-0.2-0.2l0,0c-0.9,0.8-1.3,1-1.6,1
						c-0.1,0-0.2-0.1-0.1-0.3c0.5-1.4,1.8-4.7,2-5.3c-0.2-0.2-0.5-0.3-0.7-0.2L101.8,5.3z M94.7,5.1c0.3,0,0.5,0.2,0.5,0.5l0,0
						c-0.2,1-0.7,2-1.4,2.8c-0.2,0.3-0.6,0.6-1,0.6c-0.3,0-0.5-0.2-0.5-0.5l0,0c0.2-1,0.7-2,1.4-2.8C94.2,5.2,94.5,5.1,94.7,5.1
						 M92.8,14.4c-1,0-2-0.5-2-1.2c0-0.4,0.2-0.8,0.6-1c0.4-0.3,0.9-0.5,1.4-0.6c0.5,0.2,1,0.4,1.4,0.8c0.5,0.3,0.6,0.7,0.6,0.9
						C94.8,14.1,93.5,14.4,92.8,14.4 M94.9,4.6c-0.8,0-1.6,0.3-2.2,0.9C92,6.1,91.5,7.1,91.5,8c0,0.7,0.5,1.2,1.1,1.4
						c-0.3,0.3-0.5,0.7-0.7,1.2c0,0.2,0.1,0.4,0.5,0.7c-0.8,0.3-2.6,1-2.6,2.1c0,1,1.3,1.4,2.4,1.4c2.5,0,3.7-1,3.7-1.8
						c0-0.5-0.3-1-1.1-1.5c-0.5-0.3-1.1-0.7-1.5-0.9c-0.3-0.1-0.5-0.4-0.5-0.7c0-0.2,0.1-0.4,0.3-0.5c0.4-0.1,0.7-0.2,1.1-0.4
						c1.1-0.6,1.8-1.8,1.9-3c0-0.2,0-0.4-0.1-0.6l0.1-0.1c0.2,0,0.4,0,0.6,0.1c0.2,0,0.3,0.1,0.5,0.1s0.3-0.1,0.3-0.5
						c0-0.2-0.1-0.4-0.3-0.4c-0.2,0-0.5,0.1-0.7,0.1c-0.2,0.1-0.5,0.1-0.7,0.1c-0.1,0-0.2-0.1-0.4-0.1C95.2,4.7,95.1,4.7,94.9,4.6
						 M90.4,1.5c-0.6,0-0.8,0.6-0.8,1c0,0.3,0.2,0.5,0.5,0.6c0,0,0,0,0.1,0c0.4-0.1,0.8-0.5,0.7-1C90.9,1.8,90.8,1.5,90.4,1.5
						 M87.2,10.5c-0.1,0.1,0,0.3,0.1,0.4c0.1,0.1,0.1,0.1,0.2,0.1c1.1-0.2,2.1-0.9,2.8-1.8c0-0.1-0.1-0.2-0.2-0.3l0,0
						c-0.4,0.5-1,0.9-1.6,1.1c-0.1,0-0.1-0.2,0-0.3l1.8-4.3c0.2-0.4,0.2-0.6,0.1-0.7s-0.1-0.2-0.2-0.2c-1,0.2-1.9,0.7-2.5,1.5
						c0,0.1,0.1,0.2,0.2,0.3l0,0c0.4-0.4,0.8-0.6,1.3-0.8c0.1,0,0.1,0.1,0,0.3L87.2,10.5z M80.3,10.6c0,0.2,0.1,0.5,0.6,0.4
						c0.2-0.5,0.4-0.8,0.9-0.8c0.5,0.1,1,0.3,1.5,0.5c0.4,0.2,0.8,0.3,1.2,0.4c0.5,0,0.9-0.2,1.2-0.5c0.4-0.3,0.7-0.8,0.8-1.3
						c0-0.4-0.3-0.7-0.6-0.8c-0.1,0-0.4,0.1-0.3,0.5c0.1,0.2,0.1,0.5,0.2,0.7c0,0.4-0.3,0.7-0.7,0.7c-0.3,0-0.7-0.1-1-0.3
						c-0.6-0.3-1.2-0.5-1.9-0.6l0,0c1.8-1.9,4-3.8,4.8-4.6c0-0.2-0.2-0.3-0.4-0.3c-0.2,0.3-0.5,0.5-0.9,0.5S85,5,84.6,4.8
						c-0.3-0.1-0.6-0.1-1-0.2c-0.6,0-1.1,0.2-1.6,0.6c-0.4,0.3-0.6,0.7-0.7,1.1c0,0.3,0.2,0.5,0.5,0.6l0,0c0.3,0,0.5-0.2,0.5-0.4
						c-0.1-0.2-0.2-0.4-0.2-0.6s0.1-0.5,0.6-0.5c0.6,0,1.2,0.1,1.7,0.3c0.3,0.1,0.3,0.2,0.2,0.3c-1.4,1.3-2.3,2.2-3.7,3.4
						C80.5,10.1,80.3,10.4,80.3,10.6 M76.3,5.3c0.1-0.3,0-0.6-0.4-0.6C75,4.8,74.2,5.3,73.7,6c0,0.1,0,0.2,0.1,0.2l0,0
						c0.4-0.4,0.8-0.6,1.4-0.8c0.1,0,0.1,0.2,0,0.3c-0.1,0.2-1.7,4.6-1.8,4.8c0,0.5,0.4,0.5,0.6,0.5c0.1,0,0.2,0,0.3-0.2
						C75,9.5,75.7,8.2,76.6,7c0.8-1,1.7-1.8,2.1-1.8c0.2,0,0.2,0.2,0.2,0.4c0,0.4-0.2,0.8-0.3,1.1c-0.3,0.8-0.9,2.2-1.2,3
						c-0.3,0.8-0.4,0.9-0.4,1c0,0.2,0.2,0.3,0.4,0.4c1.1-0.1,2-0.8,2.6-1.7c0-0.1,0-0.2-0.2-0.2c-0.4,0.5-0.9,0.8-1.4,1
						c-0.1,0-0.1-0.1,0-0.3c0-0.1,1.1-2.6,1.4-3.3C79.9,6.3,80,5.9,80,5.5s-0.2-0.8-0.7-0.8c-0.1,0-0.1,0-0.2,0
						c-1.1,0-2.6,1.7-3.7,3.3l0,0L76.3,5.3z M72.6,1.5c-0.6,0-0.8,0.6-0.8,1c0,0.3,0.2,0.5,0.5,0.6c0,0,0,0,0.1,0
						c0.5-0.1,0.8-0.5,0.8-0.9C73.1,1.8,72.9,1.5,72.6,1.5 M69.4,10.5c-0.1,0.1,0,0.3,0.1,0.4c0.1,0.1,0.1,0.1,0.2,0.1
						c1.1-0.2,2.1-0.9,2.8-1.8c0-0.1-0.1-0.2-0.2-0.3l0,0c-0.4,0.5-1,0.9-1.6,1.1c-0.1,0-0.1-0.2,0-0.3l1.8-4.3
						c0.2-0.4,0.2-0.6,0.1-0.7s-0.1-0.2-0.2-0.2c-1,0.2-1.9,0.7-2.5,1.5c0,0.1,0.1,0.2,0.2,0.3l0,0c0.4-0.4,0.8-0.6,1.3-0.8
						c0.1,0,0.1,0.1,0,0.3L69.4,10.5z M67.8,5.1c0.2,0,0.3,0.1,0.3,0.3c0,0,0,0,0,0.1c-0.1,0.4-0.3,0.8-0.6,1
						c-0.6,0.5-1.3,0.9-2,1.1c0.3-0.6,0.6-1.2,1.1-1.8C67.2,5.2,67.5,5.1,67.8,5.1 M68.1,4.6c-0.7,0-1.3,0.3-1.8,0.7
						c-1.3,1-2.1,2.4-2.2,4.1c0,0.7,0.3,1.6,1.2,1.6c1,0,1.9-0.6,2.4-1.4c0-0.1,0-0.2-0.1-0.2c0,0,0,0-0.1,0c-0.7,0.6-1,0.9-1.6,0.9
						c-0.4,0-0.8-0.4-0.7-0.8l0,0c0-0.5,0.1-0.9,0.2-1.3C67.5,7.4,69,6.7,69,5.5C69,5,68.6,4.6,68.1,4.6 M57.3,4.6
						c-0.7,0-1.3,0.6-1.8,1.4c0,0.2,0.1,0.3,0.2,0.2C56,6,56.4,5.5,56.8,5.5c0.1,0,0.2,0.2,0.1,0.3c-0.4,1.5-1.4,4.2-1.6,4.8
						c-0.1,0.3,0.3,0.4,0.5,0.4c0.1,0,0.2-0.1,0.3-0.2c0.7-1.7,1.5-3.3,2.6-4.8c0.2-0.3,0.4-0.5,0.5-0.5c0.2,0,0.2,0.2,0.3,0.6
						c0.1,0.3,0.3,0.3,0.5,0.1c0.2-0.3,0.3-0.6,0.3-0.9c0-0.2-0.1-0.7-0.6-0.7c-0.5,0.1-0.9,0.4-1.1,0.8C58,6.2,57.5,7.1,57,8l0,0
						l0.6-1.9C57.8,5.7,58,4.6,57.3,4.6 M53.6,5.1c0.2,0,0.3,0.1,0.3,0.3c0,0,0,0,0,0.1c-0.1,0.4-0.3,0.8-0.6,1
						c-0.6,0.5-1.3,0.9-2,1.1c0.3-0.6,0.6-1.2,1.1-1.8C53,5.2,53.4,5.1,53.6,5.1 M53.9,4.6c-0.7,0-1.3,0.3-1.8,0.7
						c-1.3,1-2.1,2.4-2.2,4.1c0,0.7,0.3,1.6,1.2,1.6c1,0,1.9-0.6,2.4-1.4c0-0.1,0-0.2-0.1-0.2c0,0,0,0-0.1,0c-0.7,0.6-1,0.9-1.6,0.9
						c-0.4,0-0.8-0.4-0.7-0.8l0,0c0-0.5,0.1-0.9,0.2-1.3c2.2-0.6,3.7-1.4,3.7-2.5C54.8,5,54.4,4.6,53.9,4.6 M47.8,5.1
						c0.3,0,0.5,0.2,0.5,0.4v0.1c0,0.9-1.1,2.8-2.1,3.8c-0.4,0.5-0.9,0.8-1.5,1c-0.3,0-0.5-0.2-0.5-0.8c0.1-1.1,0.6-2.2,1.4-3
						C46.6,5.7,47.3,5.1,47.8,5.1 M46.7,2.1c0.2-0.6,0.5-1.2,0.8-2L47.4,0c-0.6,0-1.2,0.1-1.8,0.3c-0.1,0.1-0.1,0.1,0,0.2l0.3,0.2
						c0.2,0.2,0.2,0.4-0.2,1.3L44,6.6c-0.4,0.9-0.7,1.9-0.8,3c0,0.9,0.4,1.4,1.2,1.4c1.1-0.1,2.1-0.6,2.9-1.5
						c1.1-0.9,1.8-2.2,1.9-3.5c0.1-0.7-0.4-1.3-1.1-1.4c-0.1,0-0.2,0-0.2,0c-1.1,0-2.1,1-3.2,2.6l0,0L46.7,2.1z M41.5,5.1
						c0.2,0,0.3,0.1,0.3,0.3c0,0,0,0,0,0.1c-0.1,0.4-0.3,0.8-0.6,1c-0.6,0.5-1.3,0.9-2,1.1c0.3-0.6,0.6-1.2,1.1-1.8
						C40.9,5.2,41.2,5.1,41.5,5.1 M41.8,4.6c-0.7,0-1.3,0.3-1.8,0.7c-1.3,1-2.1,2.4-2.2,4.1c0,0.7,0.3,1.6,1.2,1.6
						c1,0,1.9-0.6,2.4-1.4c0-0.1,0-0.2-0.1-0.2c0,0,0,0-0.1,0c-0.7,0.6-1,0.9-1.6,0.9c-0.4,0-0.8-0.4-0.7-0.8l0,0
						c0-0.5,0.1-0.9,0.2-1.3c2.2-0.6,3.7-1.4,3.7-2.5C42.7,5,42.3,4.6,41.8,4.6 M36.9,1.5c-0.6,0-0.8,0.6-0.8,1
						C36,2.8,36.2,3,36.5,3c0,0,0,0,0.1,0c0.5-0.1,0.8-0.5,0.8-0.9C37.4,1.8,37.2,1.5,36.9,1.5 M33.7,10.5c-0.1,0.1,0,0.3,0.1,0.4
						C33.9,11,33.9,11,34,11c1.1-0.2,2.1-0.9,2.8-1.8c0-0.1-0.1-0.2-0.2-0.3l0,0c-0.4,0.5-1,0.9-1.6,1.1c-0.1,0-0.1-0.2,0-0.3
						l1.8-4.3C37,5,37,4.8,36.9,4.7c-0.1-0.1-0.1-0.2-0.2-0.2c-1,0.2-1.9,0.7-2.5,1.5c0,0.1,0.1,0.2,0.2,0.3l0,0
						c0.4-0.4,0.8-0.6,1.3-0.8c0.1,0,0.1,0.1,0,0.3L33.7,10.5z M33.4,2.7c0.5-1.6,0.7-2.1,0.9-2.6L34.2,0c-0.6,0.1-1.3,0.2-1.9,0.5
						c-0.1,0.1-0.1,0.2,0,0.2l0,0l0.3,0.1c0.2,0.1,0.4,0.3,0,1.3l-2.4,7.1c-0.2,0.4-0.3,0.8-0.3,1.3c0,0.2,0.1,0.5,0.6,0.5
						c1.3,0,2.2-1.3,2.6-2c0-0.1-0.1-0.2-0.2-0.2c0,0,0,0-0.1,0c-0.7,0.8-1.4,1.5-1.7,1.5c-0.2,0-0.2-0.2-0.1-0.5L33.4,2.7z
						 M24.6,5.1c0.2,0,0.3,0.1,0.3,0.3c0,0,0,0,0,0.1c-0.1,0.4-0.3,0.8-0.6,1c-0.6,0.5-1.3,0.9-2,1.1c0.3-0.6,0.6-1.2,1.1-1.8
						C24,5.2,24.4,5.1,24.6,5.1 M24.9,4.6c-0.7,0-1.3,0.3-1.8,0.7c-1.3,1-2.1,2.4-2.2,4.1c0,0.7,0.3,1.6,1.2,1.6
						c1,0,1.9-0.6,2.4-1.4c0-0.1,0-0.2-0.1-0.2c0,0,0,0-0.1,0c-0.7,0.6-1,0.9-1.6,0.9c-0.4,0-0.8-0.4-0.7-0.8l0,0c0-0.6,0-1,0.2-1.5
						c2.2-0.6,3.7-1.4,3.7-2.5C25.8,5,25.4,4.6,24.9,4.6 M18.8,5.1c0.3,0,0.5,0.2,0.5,0.4v0.1c0,0.9-1.1,2.8-2.1,3.8
						c-0.4,0.5-0.9,0.8-1.4,1c-0.3,0-0.5-0.2-0.5-0.8c0.1-1.1,0.6-2.2,1.4-3C17.6,5.7,18.4,5.1,18.8,5.1 M17.7,2.1
						c0.2-0.6,0.5-1.2,0.8-2L18.4,0c-0.6,0-1.2,0.1-1.8,0.3c-0.1,0.1-0.1,0.1,0,0.2l0.3,0.2c0.2,0.2,0.2,0.4-0.2,1.3L15,6.6
						c-0.4,0.9-0.7,1.9-0.8,3c0,0.9,0.4,1.4,1.2,1.4c1.1-0.1,2.1-0.6,2.9-1.5c1.1-0.9,1.8-2.2,1.9-3.5c0.1-0.7-0.4-1.3-1.1-1.4
						c-0.1,0-0.2,0-0.2,0c-1.1,0-2.1,1-3.2,2.6l0,0L17.7,2.1z M12.5,5.1c0.2,0,0.3,0.1,0.3,0.3c0,0,0,0,0,0.1
						c-0.1,0.4-0.3,0.8-0.6,1c-0.6,0.5-1.3,0.9-2,1.1c0.3-0.6,0.6-1.2,1.1-1.8C11.9,5.2,12.3,5.1,12.5,5.1 M12.8,4.6
						c-0.7,0-1.3,0.3-1.8,0.7c-1.3,1-2.1,2.4-2.2,4.1C8.7,10.2,9,11,9.9,11c1,0,1.9-0.6,2.4-1.4c0-0.1,0-0.2-0.1-0.2c0,0,0,0-0.1,0
						c-0.7,0.6-1,0.9-1.6,0.9c-0.4,0-0.8-0.4-0.7-0.8l0,0c0-0.6,0.1-1,0.2-1.5c2.2-0.6,3.7-1.4,3.7-2.5C13.7,5,13.3,4.6,12.8,4.6
						 M4.7,3c0.5-1.5,0.5-1.7,1.4-1.8l0.5-0.1c0.1-0.1,0.1-0.2,0-0.3l0,0c-0.8,0-1.3,0-1.9,0s-1.1,0-1.7,0C2.8,0.8,2.7,1,2.8,1.1
						c0,0,0,0,0,0.1l0.4,0.1C4,1.4,4,1.6,3.5,3L1.8,8.6c-0.5,1.5-0.6,1.7-1.4,1.8H0c0,0.2,0,0.3,0,0.4l0,0c0.5,0,1,0,1.6,0h1.8
						c0.5,0,1.1,0,1.7,0s1.2,0,1.8,0c0.4-0.6,0.7-1.3,1-2c0-0.1-0.2-0.1-0.3-0.1c-0.9,1.5-1.6,1.6-3.3,1.6c-1.8,0-1.7-0.3-1.2-2
						L4.7,3z"/>
				</g>
				<g transform="translate(0 58.133)">
					<path class="st1" d="M195.8,4.6c-0.1-1,0-2,0.3-3c0.2-0.3,0.5-0.5,0.9-0.5l0.3-0.1c0.1-0.2,0.1-0.4,0-0.6
						c-0.6,0-1.2,0.1-1.9,0.1s-1.3,0-2.2-0.1c-0.1,0.2-0.1,0.4,0,0.6l0.5,0.1c0.4,0.1,0.8,0.2,1,0.5c0.2,1,0.3,2,0.3,3v2.3
						c0,0.3,0,0.5-0.1,0.7c-0.4-0.4-0.9-1-1.6-1.8l-1.4-1.6c-1.5-1.8-2.6-3-2.7-3.8c-0.3,0-0.8,0.1-1.4,0.1c-0.7,0-1.5,0-2.3-0.1
						c-0.2,0.1-0.2,0.4-0.1,0.6l0.5,0.1c0.6,0.1,0.8,0.3,0.9,0.6c0.1,0.5,0.2,0.9,0.1,1.4v4.2c0.1,1,0,2-0.2,3
						c-0.1,0.3-0.5,0.5-0.9,0.5l-0.3,0.1c-0.1,0.2-0.1,0.4,0,0.6c0.6,0,1.2-0.1,1.9-0.1s1.3,0,2.2,0.1c0.1-0.2,0.1-0.4,0-0.6
						l-0.5-0.1c-0.4-0.1-0.8-0.2-1-0.5c-0.2-1-0.3-2-0.3-3V4c0-0.4,0-0.7,0.1-1.1c0.6,0.7,1.2,1.4,1.8,2.1l3.8,4.8
						c0.8,1,1.3,1.8,1.3,1.8c0.4,0,0.7-0.1,1-0.4c0-0.5,0-1.6,0-2.7L195.8,4.6z M179.2,1.8c0-0.6,0-0.6,0.5-0.6h1.3
						c0.6-0.1,1.2,0.1,1.6,0.5c0.3,0.4,0.5,0.8,0.6,1.3c0.2,0.1,0.5,0.1,0.6-0.1c-0.1-1.1-0.2-2.3-0.2-2.6c-0.2,0-1.2,0.1-2.2,0.1
						h-3.5c-0.8,0-1.6,0-2.4-0.1c-0.2,0.2-0.2,0.4,0,0.6l0.4,0.1c0.7,0.1,0.8,0.3,0.8,1.8V9c0,1.5-0.1,1.6-0.8,1.7l-0.8,0.1
						c-0.1,0.2-0.1,0.4,0,0.6c1.2,0,2.1-0.1,2.9-0.1h2.2c1.4,0,3,0,3.8,0.1c0.4-0.8,0.6-1.7,0.7-2.7c-0.1-0.2-0.4-0.2-0.5-0.1
						c0,0,0,0-0.1,0.1c-0.9,1.9-1.5,1.9-2.9,1.9c-1.2,0-1.5-0.1-1.7-0.4c-0.2-0.5-0.3-1-0.3-1.6v-2c0-0.5,0-0.5,0.5-0.5h1.1
						c0.9,0,1.1,0.1,1.2,0.9l0.1,0.4c0.2,0.1,0.4,0.1,0.6,0c0-0.5,0-1.1,0-1.8s0-1.2,0-1.8c-0.1-0.1-0.5-0.1-0.6,0L182,4.3
						c-0.2,0.8-0.4,0.9-1.2,0.9h-1.1c-0.4,0-0.5,0-0.5-0.5V1.8z M173.6,8.6c0-0.9,0.1-1.1,0.6-1.1l0.4-0.1c0.1-0.2,0.1-0.4,0-0.6
						c-0.6,0-1.4,0.1-2.2,0.1s-1.6,0-2.8-0.1c-0.2,0.1-0.2,0.4,0,0.5l0,0l0.7,0.1c0.8,0.1,0.9,0.2,0.9,1.1v1c0,1.1-0.2,1.3-1.1,1.3
						c-0.8,0-1.6-0.2-2.3-0.6c-1.1-0.7-1.9-2.1-1.9-4.5c0-2.6,1.3-4.8,3.9-4.8c1.5-0.1,2.8,0.9,3.1,2.3c0.1,0.2,0.6,0.1,0.6,0
						c-0.2-1-0.2-2.2-0.2-2.7c-1.1-0.2-2.2-0.4-3.3-0.4c-1.4,0-2.7,0.3-3.9,0.9c-1.9,1-3,2.9-2.9,5c-0.1,2.2,1.2,4.2,3.3,5
						c1,0.4,2.2,0.6,3.3,0.6c1,0,2-0.2,2.9-0.4c0.4-0.1,0.8-0.2,1.2-0.3c0.1-0.1,0.1-0.3,0-0.4c-0.3-0.1-0.3-0.4-0.3-1.1V8.6z
						 M161.3,4.6c-0.1-1,0-2,0.3-3c0.2-0.3,0.5-0.5,0.9-0.5l0.3-0.1c0.1-0.2,0.1-0.4,0-0.6c-0.6,0-1.2,0.1-1.9,0.1s-1.3,0-2.2-0.1
						c-0.1,0.2-0.1,0.4,0,0.6l0.4,0.1c0.4,0.1,0.8,0.2,1,0.5c0.2,1,0.3,2,0.3,3v2.3c0,0.3,0,0.5-0.1,0.7c-0.4-0.4-0.9-1-1.6-1.8
						l-1.4-1.6c-1.5-1.8-2.6-3-2.7-3.8c-0.3,0-0.8,0.1-1.4,0.1c-0.7,0-1.5,0-2.3-0.1c-0.2,0.1-0.2,0.4-0.1,0.6l0.5,0.1
						c0.6,0.1,0.8,0.3,0.9,0.6c0.1,0.5,0.2,0.9,0.1,1.4v4.2c0.1,1,0,2-0.2,3c-0.1,0.3-0.5,0.5-0.9,0.5l-0.3,0.1
						c-0.1,0.2-0.1,0.4,0,0.6c0.6,0,1.2-0.1,1.9-0.1s1.3,0,2.2,0.1c0.1-0.2,0.1-0.4,0-0.6l-0.5-0.1c-0.4-0.1-0.8-0.2-1-0.5
						c-0.2-1-0.3-2-0.2-3V4c0-0.4,0-0.7,0.1-1.1c0.6,0.7,1.2,1.4,1.8,2.1l3.8,4.8c0.8,1,1.3,1.8,1.3,1.8c0.4,0,0.7-0.1,1-0.4
						c0-0.5,0-1.6,0-2.7L161.3,4.6z M139.5,7c0,1.8,0.4,3,1.2,3.8c1,0.7,2.1,1,3.3,0.9c1.2,0.1,2.4-0.4,3.3-1.2
						c0.8-1.2,1.2-2.6,1.1-4V4.6c-0.1-1,0-2,0.3-3c0.2-0.4,0.5-0.4,0.9-0.5l0.3-0.1c0.1-0.2,0.1-0.4,0-0.6c-0.6,0-1.2,0.1-1.9,0.1
						s-1.3,0-2.2-0.1c-0.1,0.2-0.1,0.4,0,0.6l0.4,0.1c0.4,0.1,0.8,0.2,1,0.5c0.2,1,0.3,2,0.3,3v2c0,2.3-0.6,4.1-2.8,4.1
						c-2.5,0-2.7-2.1-2.7-4.1V2.8c0-1.5,0.1-1.7,0.8-1.8l0.4-0.1c0.1-0.2,0.1-0.4,0-0.6c-0.8,0-1.6,0.1-2.4,0.1
						c-0.8,0-1.6,0-2.4-0.1c-0.2,0.1-0.2,0.4,0,0.6l0,0l0.4,0.1c0.7,0.1,0.8,0.3,0.8,1.8L139.5,7z M135.7,4.6c-0.1-1,0-2,0.3-3
						c0.2-0.3,0.5-0.5,0.9-0.5l0.3-0.1c0.1-0.2,0.1-0.4,0-0.6c-0.6,0-1.2,0.1-1.9,0.1s-1.3,0-2.2-0.1c-0.1,0.2-0.1,0.4,0,0.6
						l0.4,0.1c0.4,0.1,0.8,0.2,1,0.5c0.2,1,0.3,2,0.3,3v2.3c0,0.3,0,0.5-0.1,0.7c-0.4-0.4-0.9-1-1.6-1.8l-1.4-1.6
						c-1.5-1.8-2.6-3-2.7-3.8c-0.3,0-0.8,0.1-1.4,0.1c-0.7,0-1.5,0-2.3-0.1c-0.2,0.1-0.2,0.4-0.1,0.6l0.5,0.1
						c0.6,0.1,0.8,0.3,0.9,0.6c0.1,0.5,0.2,0.9,0.1,1.4v4.2c0.1,1,0,2-0.2,3c-0.1,0.3-0.5,0.5-0.9,0.5l-0.3,0.1
						c-0.1,0.2-0.1,0.4,0,0.6c0.6,0,1.2-0.1,1.9-0.1c0.7,0,1.3,0,2.2,0.1c0.1-0.2,0.1-0.4,0-0.6l-0.5-0.1c-0.4-0.1-0.8-0.2-1-0.5
						c-0.2-1-0.3-2-0.3-3V4c0-0.4,0-0.7,0.1-1.1c0.6,0.7,1.2,1.4,1.8,2.1l3.8,4.8c0.8,1,1.3,1.8,1.3,1.8c0.4,0,0.7-0.1,1-0.4
						c0-0.5,0-1.6,0-2.7L135.7,4.6z M119.7,6.1c0.7,0,0.7,0,0.7,0.5V9c0,1.5-0.1,1.7-0.8,1.8l-0.4,0.1c-0.1,0.2-0.1,0.4,0,0.6
						c0.8,0,1.6-0.1,2.4-0.1s1.6,0,2.4,0.1c0.1-0.2,0.1-0.4,0-0.6l-0.4-0.1c-0.8-0.1-0.9-0.3-0.9-1.8V2.8c0-1.5,0.1-1.7,0.9-1.8
						l0.3-0.1c0.1-0.2,0.1-0.4,0-0.6c-0.8,0-1.5,0.1-2.3,0.1s-1.6,0-2.5-0.1c-0.1,0.2-0.1,0.4,0,0.6l0.4,0.1
						c0.8,0.1,0.8,0.3,0.8,1.8v1.9c0,0.5,0,0.5-0.7,0.5h-3.5c-0.7,0-0.7,0-0.7-0.5V2.8c0-1.5,0.1-1.7,0.8-1.8l0.3-0.1
						c0.1-0.2,0.1-0.4,0-0.6c-0.7,0-1.6,0.1-2.3,0.1c-0.8,0-1.7,0-2.5-0.1c-0.1,0.2-0.1,0.4,0,0.6l0.4,0.1c0.8,0.1,0.8,0.3,0.8,1.8
						V9c0,1.5-0.1,1.7-0.8,1.8l-0.4,0.1c-0.1,0.2-0.1,0.4,0,0.6c0.8,0,1.7-0.1,2.5-0.1c0.7,0,1.6,0,2.5,0.1c0.1-0.2,0.1-0.4,0-0.6
						l-0.5-0.1c-0.7-0.1-0.8-0.3-0.8-1.8V6.6c0-0.5,0-0.5,0.7-0.5H119.7z M108.3,6.1c0,2.7-0.8,4.8-3,4.8c-2.7,0-3.4-3.3-3.4-5.3
						c0-2.8,1.1-4.7,3.1-4.7C107.1,0.9,108.3,3.2,108.3,6.1 M105.1,0.1C102,0,99.3,2.5,99.2,5.7c0,0.1,0,0.2,0,0.3
						c-0.1,3,2.2,5.5,5.2,5.7c0.2,0,0.4,0,0.6,0c3.6,0,6-2.2,6-5.8c0.1-3-2.2-5.6-5.3-5.7C105.5,0.1,105.3,0.1,105.1,0.1 M99.8,1
						c0.1-0.1,0.1-0.5,0-0.6c-0.5,0-0.9,0.1-1.5,0.1c-0.5,0-1.2,0-1.7-0.1c-0.2,0.2-0.2,0.4,0,0.6L97,1.1c0.2,0.1,0.5,0.1,0.5,0.3
						c-0.1,0.5-0.3,0.9-0.4,1.3c-0.8,2-1.7,4.1-2.5,6.1c-0.3-0.3-0.6-0.8-1-1.7l-0.8-1.7c-0.1-0.1-0.1-0.3-0.1-0.4
						c0.1-0.3,0.2-0.6,0.4-0.9c0.2-0.4,0.6-1.3,1-1.9c0.6-1,0.7-1,1.3-1.1L95.8,1c0.1-0.2,0.1-0.4,0-0.6c-0.4,0-1,0.1-1.7,0.1
						c-0.5,0-1.1,0-1.6-0.1c-0.1,0.2-0.2,0.4-0.1,0.6L93,1.1c0.3,0.1,0.3,0.1,0.3,0.2c-0.1,0.4-0.3,0.8-0.5,1.2l-0.2,0.3
						c-0.2,0.4-0.3,0.8-0.5,1.1c-0.2-0.3-0.4-0.7-0.5-1.1l-0.5-1.1C91,1.5,91,1.4,90.9,1.2c0-0.1,0.3-0.2,0.5-0.2l0.3-0.1
						c0.1-0.1,0.1-0.5-0.1-0.6c-0.4,0-1.1,0.1-1.9,0.1c-0.7,0-1.4,0-2.1-0.1c-0.2,0.1-0.2,0.4,0,0.6h0.2c0.6,0.1,0.7,0.2,1.1,1
						l1.6,3.5c0.1,0.2,0.1,0.4,0.2,0.6c0,0.2-0.1,0.4-0.2,0.6l-0.2,0.5c-0.3,0.6-0.6,1.4-0.8,1.7C89.3,8.5,89,8,88.6,7L87,3.3
						c-0.3-0.7-0.6-1.4-0.9-2.1c0-0.1,0.1-0.2,0.4-0.3l0.3-0.1c0.2-0.1,0.1-0.5,0-0.6c-0.6,0-1.3,0.1-2,0.1c-0.8,0-1.5,0-2.2-0.1
						c-0.2,0.1-0.2,0.4-0.1,0.6L82.9,1c0.5,0.1,0.6,0.2,1.1,1.2l2.7,6c0.6,1.2,1.2,2.7,1.5,3.4c0.1,0.1,0.3,0.1,0.4,0.1
						c0.2,0,0.4,0,0.5-0.1c0.3-0.5,0.4-1,0.7-1.6l0.8-1.7c0.2-0.5,0.4-0.9,0.6-1.1c0.1,0.3,0.4,0.7,0.6,1.3l0.7,1.6
						c0.2,0.5,0.5,1.1,0.6,1.5c0.1,0.1,0.3,0.1,0.5,0.1s0.4,0,0.5-0.1c0.8-2.2,2.6-6.3,3.4-8.3c0.3-0.6,0.6-1.3,0.9-1.8
						c0.2-0.2,0.5-0.3,0.7-0.4L99.8,1z M75.7,9c0,1.5-0.1,1.7-0.8,1.8l-0.7,0.1c-0.1,0.2-0.1,0.4,0,0.6c1.2,0,2-0.1,2.8-0.1
						c0.7,0,1.6,0,2.7,0.1c0.1-0.2,0.1-0.4,0-0.6L79,10.8c-0.9-0.1-1-0.2-1-1.8V1.7c0-0.4,0-0.5,0.4-0.5h1C80.7,1.2,81,2,81.2,3
						c0.1,0.1,0.5,0.1,0.6-0.1c0-1,0.1-1.9,0.2-2.9c0,0.1,0,0-0.1,0s-0.2,0-0.2,0.1c-0.2,0.3-0.4,0.4-1.5,0.4H74
						c-1.3,0-1.3-0.1-1.4-0.3S72.4,0,72.3,0s-0.2,0-0.2,0.1C72,1,71.8,2,71.5,2.9c0.1,0.2,0.4,0.3,0.6,0.1c0.5-1.2,0.8-1.9,2.1-1.9
						h1c0.4,0,0.4,0.1,0.4,0.5L75.7,9z M64.8,2c0-0.8,0-0.8,0.7-0.8c1.2,0,2.2,1,2.2,2.2c0,0.1,0,0.2,0,0.3c0.1,0.7-0.2,1.3-0.6,1.8
						C66.8,5.8,66.3,6,65.8,6c-1,0-1-0.1-1-0.6L64.8,2z M62.5,9c0,1.5-0.1,1.6-0.8,1.8l-0.4,0.1c-0.1,0.2-0.1,0.4,0,0.6
						c0.9,0,1.6-0.1,2.4-0.1c0.8,0,1.6,0,2.4,0.1c0.1-0.2,0.1-0.4,0-0.6l-0.4-0.1c-0.7-0.1-0.8-0.3-0.8-1.8V7c0-0.3,0-0.4,0.6-0.4
						c0.4,0,0.8,0.2,0.9,0.6c0.4,0.9,0.8,1.7,1.3,2.6c0.6,1.2,1.9,1.8,3.2,1.7c0.4,0,0.9,0,1.3-0.1c0.1-0.1,0.1-0.3-0.1-0.4
						c-0.4,0-0.8-0.2-1.1-0.5c-0.8-0.7-1.5-1.9-2.6-4.2c-0.1-0.2-0.1-0.3,0.1-0.4c1.1-0.4,1.8-1.4,1.8-2.5c0-1-0.5-2-1.5-2.5
						s-2.1-0.7-3.3-0.6c-1.6,0-2.9,0.1-4.1,0.1c-0.2,0.1-0.2,0.4-0.1,0.5c0,0,0,0,0,0.1l0.4,0.1c0.7,0.1,0.7,0.3,0.7,1.9L62.5,9z
						 M57.7,6.1c0,2.7-0.8,4.8-3,4.8c-2.7,0-3.4-3.3-3.4-5.3c0-2.8,1.1-4.7,3.1-4.7C56.4,0.9,57.7,3.2,57.7,6.1 M54.5,0.2
						c-3.2-0.1-5.8,2.3-5.9,5.5c0,0.1,0,0.2,0,0.3c-0.1,3,2.2,5.5,5.2,5.7c0.2,0,0.4,0,0.6,0c3.6,0,6-2.2,6-5.8
						c0.1-3-2.2-5.6-5.3-5.7C54.9,0.1,54.7,0.1,54.5,0.2 M43.2,1.9c0-0.6,0-0.7,0.5-0.7H45c0.6-0.1,1.2,0.1,1.6,0.5
						C46.8,2.1,47,2.5,47.1,3c0.2,0.1,0.6,0.1,0.6-0.1c0-1.1,0-2.3,0-2.6c-0.2,0-1.2,0.1-2.2,0.1H42c-0.8,0-1.6,0-2.3-0.1
						c-0.2,0.1-0.2,0.5,0,0.6L40,1c0.7,0.1,0.8,0.3,0.8,1.8V9c0,1.5-0.1,1.7-0.8,1.8l-0.5,0.1c-0.1,0.2-0.1,0.4,0,0.6
						c1,0,1.8-0.1,2.6-0.1s1.6,0,2.6,0.1c0.1-0.2,0.1-0.4,0-0.6l-0.6-0.1c-0.7-0.1-0.8-0.2-0.8-1.8V6.8c0-0.4,0-0.5,0.5-0.5H45
						c0.9,0,1.1,0.1,1.2,0.9l0.1,0.4c0.2,0.1,0.5,0.1,0.6,0c0-0.5,0-1.1,0-1.7s0-1.2,0-1.8c-0.2-0.2-0.4-0.2-0.6,0l-0.1,0.4
						C46,5.3,45.9,5.4,45,5.4h-1.3c-0.4,0-0.5-0.1-0.5-0.5V1.9z M24.6,1c0.7,0.1,1,0.4,1,1.3s0,2.2-0.1,3.4c-0.1,1.6-0.2,3-0.2,3.8
						c-0.1,1-0.2,1.1-1,1.3L24,10.9c-0.1,0.1-0.1,0.5,0.1,0.6c0.7,0,1.3-0.1,1.8-0.1c0.6,0,1.3,0,2,0.1c0.1-0.2,0.2-0.4,0-0.6
						l-0.6-0.1c-0.7-0.1-0.8-0.3-0.8-1.2c0-1,0-2.7,0-3.7c0-0.9,0-1.6,0.1-2.7l0,0c0.9,2.2,3,6.3,3.6,8.4c0.1,0.1,0.3,0.1,0.4,0.1
						s0.2,0,0.3-0.1C32,8.8,33.3,6,34.6,3.3l0,0v1.9v4.3c0,1,0,1.2-0.8,1.3l-0.5,0.1c-0.1,0.1-0.2,0.4,0,0.5c0,0,0,0,0.1,0
						c0.8,0,1.7-0.1,2.5-0.1s1.5,0,2.3,0.1c0.2-0.1,0.2-0.4,0-0.6l-0.5-0.1c-0.6-0.1-0.7-0.5-0.7-1.2c-0.1-2.1-0.1-3.9-0.1-7.3
						c0-0.9,0.3-1.1,1-1.2l0.4,0c0.1-0.2,0.1-0.4,0-0.6c-0.6,0-1.4,0.1-1.9,0.1s-1.1,0-1.6-0.1c-0.4,1.4-0.9,2.7-1.6,4l-0.8,1.8
						c-0.4,1-0.7,1.5-0.9,1.9c-0.2-0.4-0.8-1.5-1-1.8L29.3,4C28.6,2.4,28,1.4,28,0.4c-0.6,0.1-1.1,0.1-1.6,0.1c-0.8,0-1.5,0-2.1-0.1
						c-0.2,0.1-0.2,0.4,0,0.6H24.6z M20.7,6.1c0,2.7-0.8,4.8-3,4.8c-2.7,0-3.4-3.3-3.4-5.3c0-2.8,1.1-4.7,3.1-4.7
						C19.4,0.9,20.7,3.2,20.7,6.1 M17.5,0.2c-3.2-0.1-5.8,2.3-5.9,5.5c0,0.1,0,0.2,0,0.3c-0.1,3,2.2,5.5,5.2,5.7c0.2,0,0.4,0,0.6,0
						c3.6,0,6-2.2,6-5.8c0.1-3-2.2-5.6-5.3-5.7C17.9,0.1,17.7,0.1,17.5,0.2 M3.8,2.8c0-1.5,0.1-1.7,0.8-1.8h0.5
						c0.2-0.2,0.2-0.4,0-0.6c-0.9,0-1.7,0.1-2.5,0.1s-1.7,0-2.5-0.1C0,0.5,0,0.7,0.1,0.9c0,0,0,0,0.1,0.1h0.4
						c0.7,0.1,0.8,0.3,0.8,1.8V9c0,1.5-0.1,1.7-0.8,1.8l-0.5,0.1C0,11,0,11.3,0.1,11.5c0.9,0,1.7-0.1,2.5-0.1s1.6,0,2.5,0.1
						c0.1-0.2,0.1-0.4,0-0.6l-0.5-0.1C3.9,10.7,3.8,10.6,3.8,9V7.3c0-0.9,0-1.1,0.4-1.1s0.6,0.4,1.2,1.3l0.9,1.3
						c0.2,0.3,0.9,1.3,1,1.5c0.1,0.1,0.1,0.2,0.1,0.3s-0.1,0.1-0.3,0.2l-0.4,0.1c-0.2,0.1-0.2,0.5,0,0.6c0.9,0,1.8-0.1,2.6-0.1
						s1.6,0,2.4,0.1c0.2-0.1,0.2-0.4,0-0.6l-0.5-0.1c-0.5,0-1-0.3-1.2-0.8C9,8.5,8,6.9,7.1,5.7C6.6,5,6.5,4.8,6.5,4.7
						s0.1-0.3,0.2-0.4l0.8-0.9C8.2,2.5,9,1.8,10,1.2c0.5-0.2,0.9-0.3,1.4-0.3c0.1-0.1,0.1-0.5-0.1-0.6c-0.7,0-1.4,0.1-2,0.1
						s-1.2,0-2.1-0.1C7.1,0.5,7,0.7,7.1,0.9c0,0,0,0.1,0.1,0.1h0.6C8,1,8.1,1.1,8.1,1.2C8,1.4,8,1.6,7.8,1.7c-0.7,1-1.5,1.9-2.4,2.8
						c-0.3,0.3-1,1-1.3,1c-0.2,0-0.3-0.1-0.3-0.6L3.8,2.8z"/>
				</g>
			</g>
		</g>
	</g>
</g>
</svg>
