<?xml version="1.0" encoding="utf-8"?>
<!-- Generator: Adobe Illustrator 24.3.0, SVG Export Plug-In . SVG Version: 6.00 Build 0)  -->
<svg version="1.1" id="Слой_1" xmlns="http://www.w3.org/2000/svg" xmlns:xlink="http://www.w3.org/1999/xlink" x="0px" y="0px"
	 viewBox="0 0 216.4 237.7" style="enable-background:new 0 0 216.4 237.7;" xml:space="preserve">
<style type="text/css">
	.st0{fill:#AF9E86;}
	.st1{fill:#FFFFFF;}
	.st2{font-family:'SemplicitaPro-Medium';}
	.st3{font-size:12px;}
</style>
<rect class="st0" width="216.4" height="214.8"/>
<g transform="translate(28.994 159.506)">
	<path class="st1" d="M10,11.1V8.7h7.3c-0.1,6.6-4.1,9.2-8.2,9.2c-4.9,0-8.8-3.9-8.8-8.8s3.9-8.8,8.8-8.8c2.4-0.1,4.7,0.7,6.5,2.2
		l-1.4,2.1c-1.4-1.2-3.1-1.9-5-1.8C5.8,2.8,3.1,5.4,3,8.7C3,8.9,3,9,3,9.2c0,3.4,2.7,6.1,6.1,6.1c2.9,0,5-1.8,5.2-4.2L10,11.1z"/>
	<path class="st1" d="M32.1,17.5l-1.5-3.3h-7.8l-1.5,3.3h-3.2L26.7,0l8.6,17.5H32.1z M27,6.4c-0.1-0.3-0.2-0.5-0.3-0.8
		c-0.1,0.3-0.2,0.5-0.3,0.8L24,11.6h5.4L27,6.4z"/>
	<path class="st1" d="M46.3,17.5l-5.7-6.2h-0.4v6.2h-2.8V0.7H41c3,0,7,0.8,7,5.2c-0.1,2.5-1.9,4.6-4.4,5l6.6,6.6H46.3z M41.3,8.8
		C43.8,8.8,45,7.5,45,6c0-1.8-1.1-2.8-3.6-2.8h-1.3v5.5h1.2V8.8z"/>
	<path class="st1" d="M55.2,17.5V3.3h-5V0.7H63v2.6h-5v14.2H55.2z"/>
	<path class="st1" d="M65.7,17.5V0.7h9.7v2.6h-6.9v4h5.6v2.6h-5.6v5h7.6v2.6H65.7z"/>
	<path class="st1" d="M82.1,6.9v10.6h-2.8V0.2l12.5,11.5v-11h2.8v17.4L82.1,6.9z"/>
	<path class="st1" d="M98.8,17.5V0.7h3.7c4,0,7,1.3,7,5.4c0,3.4-2.1,5.7-6.6,5.7h-1.2v5.8L98.8,17.5L98.8,17.5z M102.8,9.2
		c2.5,0,3.7-1.3,3.7-3.1c0-1.7-1.1-2.8-3.3-2.8h-1.6v5.9H102.8z"/>
	<path class="st1" d="M124.4,17.5l-1.5-3.3h-7.8l-1.5,3.3h-3.2L119,0l8.6,17.5H124.4z M119.3,6.4c-0.1-0.3-0.2-0.5-0.3-0.8
		c-0.1,0.3-0.2,0.5-0.3,0.8l-2.4,5.2h5.4L119.3,6.4z"/>
	<path class="st1" d="M138.6,17.5l-5.7-6.2h-0.4v6.2h-2.8V0.7h3.6c3.1,0,7.1,0.8,7.1,5.2c-0.1,2.5-1.9,4.6-4.4,5l6.6,6.6H138.6z
		 M133.6,8.8c2.5,0,3.8-1.3,3.8-2.8c0-1.8-1.1-2.8-3.6-2.8h-1.3v5.5h1.1V8.8z"/>
	<path class="st1" d="M154.3,17.5l-7.4-6.8v6.8H144V0.7h2.8v6.9l6.4-6.9h3.7l-8.1,8.2l9.6,8.6H154.3z"/>
</g>
<g transform="translate(75.23 181.058)">
	<path class="st1" d="M5.6,9.9l-4-3.7v3.7H0V0.8h1.6v3.7L5,0.8h2L2.6,5.3L7.9,10L5.6,9.9z"/>
	<path class="st1" d="M11.2,10.1C9.4,10.1,8,8.6,8,6.8s1.5-3.2,3.3-3.2s3.2,1.5,3.2,3.3S13.1,10.1,11.2,10.1
		C11.3,10.1,11.2,10.1,11.2,10.1z M13,6.9c0.1-1-0.6-1.9-1.6-2s-1.9,0.6-2,1.6c0,0.2,0,0.3,0,0.5c-0.1,1,0.7,1.9,1.8,2l0,0
		c1,0,1.8-0.8,1.8-1.8C13,7.1,13,7,13,6.9L13,6.9z"/>
	<path class="st1" d="M15.7,9.9V3.8h1.4v0.9c0.1-0.3,0.6-1.1,1.3-1.1c0.4,0,0.8,0.1,1.1,0.3L19,5.2C18.9,5.1,18.6,5,18.3,5
		c-0.7,0-1.1,0.8-1.1,1.5v3.4H15.7z"/>
	<path class="st1" d="M24.5,9.9V6.6c0-1.1-0.2-1.7-1.2-1.7c-0.5,0-1,0.3-1.4,0.7v4.3h-1.4V3.8h1.4v0.6c0.5-0.5,1.2-0.8,2-0.8
		c1.3,0,2.1,0.7,2.1,2.2v4.1H24.5z"/>
	<path class="st1" d="M33.1,9.3c-0.7,0.5-1.7,0.8-2.6,0.8c-1.8,0.1-3.3-1.3-3.4-3.1s1.3-3.3,3.1-3.4h0.1c1.6,0,2.9,1.2,3,2.8
		c0,0.1,0,0.2,0,0.3v0.6h-4.7c0.1,0.8,0.8,1.5,2.1,1.5c0.7,0,1.4-0.2,1.9-0.6L33.1,9.3z M31.8,6.3c0-0.8-0.6-1.5-1.5-1.5
		c0,0,0,0-0.1,0c-0.9,0-1.6,0.6-1.7,1.5H31.8z"/>
	<path class="st1" d="M38.5,3.8h1.4v5.5c-0.8,0.6-1.7,0.9-2.7,0.8c-1.6,0-2.8-0.8-2.8-2.4V3.8h1.4v3.6c0,1.2,0.7,1.5,1.5,1.5
		c0.4,0,0.8-0.1,1.1-0.3L38.5,3.8z"/>
	<path class="st1" d="M41.5,0h1.4v4.2c0.5-0.4,1.2-0.5,1.8-0.5c1.6,0,2.9,1.4,2.8,3c0,0.1,0,0.1,0,0.2c0,1.8-1.4,3.3-3.2,3.3
		c-0.1,0-0.2,0-0.3,0c-0.9,0-1.8-0.3-2.6-0.8L41.5,0z M42.9,8.6c0.4,0.2,0.8,0.3,1.2,0.3c1,0,1.9-0.8,2-1.8c0-0.1,0-0.2,0-0.3
		c0-1.1-0.6-2-1.6-2c-0.6,0-1.1,0.2-1.5,0.6L42.9,8.6z"/>
	<path class="st1" d="M52.8,3.8h1.4v5.5c-0.8,0.6-1.7,0.9-2.7,0.8c-1.6,0-2.8-0.8-2.8-2.4V3.8h1.4v3.6c0,1.2,0.7,1.5,1.5,1.5
		c0.4,0,0.8-0.1,1.1-0.3L52.8,3.8z"/>
	<path class="st1" d="M55.7,9.9V3.8h1.4v0.9c0.1-0.3,0.6-1.1,1.3-1.1c0.4,0,0.8,0.1,1.1,0.3L59,5.2C58.8,5.1,58.5,5,58.3,5
		c-0.7,0-1.1,0.8-1.1,1.5v3.4H55.7z"/>
	<path class="st1" d="M64.6,9.4c-0.4,0.4-1,0.7-1.7,0.7C61.2,10,59.9,8.6,60,7V6.9c0-1.7,1.3-3.2,3.1-3.2c0.1,0,0.2,0,0.3,0
		c0.9,0,1.8,0.2,2.6,0.6v6c0.2,1.5-0.9,2.8-2.4,3c-0.2,0-0.4,0-0.6,0c-1,0-1.9-0.2-2.8-0.7l0.6-1.1c0.6,0.4,1.4,0.6,2.1,0.6
		c0.8,0.1,1.5-0.5,1.6-1.3c0-0.1,0-0.2,0-0.3L64.6,9.4z M64.6,5.1c-0.4-0.2-0.7-0.2-1.1-0.3c-1,0-1.9,0.7-1.9,1.7c0,0.1,0,0.2,0,0.3
		c0,0.9,0.5,2,1.6,2c0.6,0,1.1-0.3,1.4-0.7V5.1z"/>
</g>
<g transform="translate(49.426 26.966)">
	<g transform="translate(39.99 20.38)">
		<path class="st1" d="M38.8,77.6C17.4,77.6,0,60.2,0,38.8S17.4,0,38.8,0s38.8,17.4,38.8,38.8S60.2,77.6,38.8,77.6z M38.8,3.3
			C19.2,3.3,3.3,19.2,3.3,38.8s15.9,35.5,35.5,35.5s35.5-15.9,35.5-35.5S58.4,3.3,38.8,3.3L38.8,3.3z"/>
	</g>
	<g transform="translate(19.996)">
		<path class="st1" d="M38.8,77.6C17.4,77.6,0,60.2,0,38.8S17.4,0,38.8,0s38.8,17.4,38.8,38.8S60.2,77.6,38.8,77.6z M38.8,3.3
			C19.2,3.3,3.3,19.2,3.3,38.8s15.9,35.5,35.5,35.5s35.5-15.9,35.5-35.5l0,0C74.3,19.2,58.4,3.3,38.8,3.3L38.8,3.3z"/>
	</g>
	<g transform="translate(0 20.38)">
		<path class="st1" d="M38.8,77.6C17.4,77.6,0,60.2,0,38.8S17.4,0,38.8,0s38.8,17.4,38.8,38.8l0,0C77.6,60.2,60.2,77.6,38.8,77.6z
			 M38.8,3.3C19.2,3.3,3.3,19.2,3.3,38.8s15.9,35.5,35.5,35.5s35.5-15.9,35.5-35.5S58.4,3.3,38.8,3.3L38.8,3.3z"/>
	</g>
	<g transform="translate(19.996 39.99)">
		<path class="st1" d="M38.8,77.6C17.4,77.6,0,60.2,0,38.8S17.4,0,38.8,0s38.8,17.4,38.8,38.8l0,0C77.6,60.2,60.2,77.6,38.8,77.6z
			 M38.8,3.3C19.2,3.3,3.3,19.2,3.3,38.8s15.9,35.5,35.5,35.5s35.5-15.9,35.5-35.5l0,0C74.3,19.2,58.4,3.3,38.8,3.3z"/>
	</g>
</g>
<text transform="matrix(1 0 0 1 19.8611 234.747)" class="st0 st2 st3">KOMFORTIGE WOHNUNGEN</text>
</svg>
