<?xml version="1.0" encoding="utf-8"?>
<!-- Generator: Adobe Illustrator 24.3.0, SVG Export Plug-In . SVG Version: 6.00 Build 0)  -->
<svg version="1.1" id="Слой_1" xmlns="http://www.w3.org/2000/svg" xmlns:xlink="http://www.w3.org/1999/xlink" x="0px" y="0px"
	 viewBox="0 0 183.5 205.2" style="enable-background:new 0 0 183.5 205.2;" xml:space="preserve">
<style type="text/css">
	.st0{fill:#781421;}
	.st1{fill:#FFFFFF;}
	.st2{fill:#8D222C;}
	.st3{font-family:'SemplicitaPro-Medium';}
	.st4{font-size:12px;}
</style>
<g transform="translate(-1024.388 -2944.981)">
	<g transform="translate(0 517.02)">
		<g transform="translate(0 -517.02)">
			<rect x="1024.4" y="2945" class="st0" width="183.5" height="183.5"/>
		</g>
		<g transform="translate(30.06 -355.606)">
			<path class="st1" d="M1027.1,2928.9v-2h6.3c-0.1,5.6-3.6,7.9-7.1,7.9c-4.2,0.1-7.7-3.2-7.8-7.4v-0.1c0-4.2,3.5-7.6,7.6-7.6
				c0.1,0,0.1,0,0.2,0c2-0.1,4.1,0.6,5.6,1.9l-1.2,1.8c-1.2-1-2.7-1.6-4.3-1.5c-2.8-0.1-5.2,2.2-5.2,5c0,0.1,0,0.3,0,0.4
				c0,2.9,2.3,5.3,5.3,5.3c2.4,0,4.4-1.5,4.5-3.7L1027.1,2928.9z"/>
			<path class="st1" d="M1046.1,2934.5l-1.3-2.9h-6.7l-1.3,2.9h-2.7l7.4-15.1l7.4,15.1H1046.1z M1041.7,2924.9
				c-0.1-0.2-0.2-0.4-0.2-0.7c-0.1,0.2-0.2,0.5-0.3,0.7l-2,4.5h4.7L1041.7,2924.9z"/>
			<path class="st1" d="M1058.4,2934.5l-4.9-5.4h-0.4v5.4h-2.4v-14.5h3c2.6,0,6.1,0.7,6.1,4.5c-0.1,2.1-1.6,4-3.8,4.3l5.7,5.7
				H1058.4z M1054,2927c2.1,0,3.2-1.1,3.2-2.3c0-1.5-1-2.3-3-2.3h-1.1v4.8L1054,2927z"/>
			<path class="st1" d="M1066,2934.5v-12.2h-4.3v-2.2h11v2.2h-4.3v12.2H1066z"/>
			<path class="st1" d="M1075,2934.5v-14.5h8.4v2.2h-5.9v3.5h4.8v2.2h-4.8v4.4h6.5v2.2L1075,2934.5z"/>
			<path class="st1" d="M1089.1,2925.4v9.2h-2.4v-14.9l10.8,9.9v-9.5h2.4v15L1089.1,2925.4z"/>
			<path class="st1" d="M1103.6,2934.5v-14.5h3.1c3.5,0,6.1,1.1,6.1,4.6c0,3-1.8,4.9-5.7,4.9h-1v5H1103.6z M1107,2927.3
				c2.1,0,3.1-1.1,3.1-2.6c0-1.4-1-2.3-2.8-2.3h-1.4v5.1L1107,2927.3z"/>
			<path class="st1" d="M1125.6,2934.5l-1.3-2.9h-6.7l-1.3,2.9h-2.7l7.4-15.1l7.4,15.1H1125.6z M1121.1,2924.9
				c-0.1-0.2-0.2-0.4-0.2-0.7c-0.1,0.2-0.2,0.5-0.3,0.7l-2,4.5h4.7L1121.1,2924.9z"/>
			<path class="st1" d="M1137.8,2934.5l-4.9-5.4h-0.4v5.4h-2.4v-14.5h3c2.6,0,6.1,0.7,6.1,4.5c-0.1,2.1-1.6,4-3.8,4.3l5.7,5.7
				H1137.8z M1133.5,2927c2.1,0,3.2-1.1,3.2-2.3c0-1.5-1-2.3-3-2.3h-1.1v4.8L1133.5,2927z"/>
			<path class="st1" d="M1151.3,2934.5l-6.4-5.8v5.8h-2.4v-14.5h2.4v5.9l5.5-5.9h3.1l-7,7l8.3,7.4H1151.3z"/>
		</g>
		<g transform="translate(79.342 -333.795)">
			<path class="st1" d="M1016,2924.7l-3.5-3.2v3.2h-1.3v-7.9h1.3v3.3l2.9-3.3h1.7l-3.8,3.9l4.6,4.1H1016z"/>
			<path class="st1" d="M1020.7,2924.8c-1.5,0-2.8-1.2-2.8-2.7l0,0c0-1.5,1.2-2.7,2.8-2.7c0,0,0,0,0.1,0c1.5,0,2.8,1.2,2.8,2.7l0,0
				C1023.6,2923.6,1022.4,2924.9,1020.7,2924.8L1020.7,2924.8z M1022.4,2922.1c0.1-0.9-0.6-1.6-1.4-1.7c0,0,0,0-0.1,0
				c-0.9,0-1.6,0.7-1.6,1.6v0.1c0,0.9,0.6,1.6,1.5,1.7l0,0c0.8,0,1.5-0.7,1.5-1.5C1022.4,2922.2,1022.4,2922.2,1022.4,2922.1z"/>
			<path class="st1" d="M1024.7,2924.7v-5.3h1.2v0.8c0.1-0.2,0.5-0.9,1.1-0.9c0.3,0,0.6,0.1,0.9,0.3l-0.4,1.1
				c-0.2-0.2-0.4-0.2-0.7-0.2c-0.6,0-0.9,0.7-0.9,1.3v3L1024.7,2924.7z"/>
			<path class="st1" d="M1032.2,2924.7v-2.9c0-0.9-0.2-1.4-1-1.4c-0.5,0-0.9,0.2-1.2,0.6v3.8h-1.2v-5.3h1.2v0.5
				c0.5-0.4,1-0.7,1.7-0.7c1.1,0,1.7,0.6,1.7,1.9v3.6L1032.2,2924.7z"/>
			<path class="st1" d="M1039.6,2924.2c-0.6,0.5-1.4,0.7-2.2,0.7c-1.4,0.1-2.7-0.9-2.9-2.4c0-0.1,0-0.2,0-0.3
				c-0.1-1.4,1-2.7,2.5-2.9c0.1,0,0.2,0,0.2,0c1.4,0,2.5,1,2.5,2.4c0,0.1,0,0.2,0,0.3v0.5h-4.1c0.1,0.7,0.7,1.3,1.8,1.3
				c0.6,0,1.1-0.2,1.6-0.5L1039.6,2924.2z M1038.5,2921.6c0-0.7-0.5-1.3-1.2-1.3c0,0,0,0-0.1,0c-0.7,0-1.4,0.5-1.4,1.3H1038.5z"/>
			<path class="st1" d="M1044.3,2919.4h1.2v4.7c-0.7,0.5-1.5,0.8-2.3,0.7c-1.4,0-2.3-0.7-2.3-2v-3.4h1.2v3.1c0,1,0.6,1.3,1.2,1.3
				c0.3,0,0.7-0.1,1-0.3L1044.3,2919.4z"/>
			<path class="st1" d="M1046.8,2916.2h1.2v3.6c0.5-0.3,1-0.5,1.6-0.5c1.6,0,2.4,1.3,2.4,2.7c0,1.5-1.2,2.9-2.7,2.9
				c-0.1,0-0.2,0-0.3,0c-0.8,0-1.6-0.2-2.2-0.6V2916.2z M1048.1,2923.6c0.3,0.2,0.6,0.3,1,0.2c0.9,0,1.6-0.6,1.7-1.5
				c0-0.1,0-0.2,0-0.2c0-0.9-0.5-1.7-1.4-1.7c-0.5,0-0.9,0.2-1.3,0.5L1048.1,2923.6L1048.1,2923.6z"/>
			<path class="st1" d="M1056.6,2919.4h1.2v4.7c-0.7,0.5-1.5,0.8-2.3,0.7c-1.4,0-2.3-0.7-2.3-2v-3.4h1.2v3.1c0,1,0.6,1.3,1.2,1.3
				c0.3,0,0.7-0.1,1-0.3L1056.6,2919.4z"/>
			<path class="st1" d="M1059.1,2924.7v-5.3h1.2v0.8c0.1-0.2,0.5-0.9,1.1-0.9c0.3,0,0.6,0.1,0.9,0.3l-0.4,1.1
				c-0.2-0.2-0.4-0.2-0.7-0.2c-0.6,0-0.9,0.7-0.9,1.3v3L1059.1,2924.7z"/>
			<path class="st1" d="M1066.7,2924.2c-0.4,0.4-0.9,0.6-1.4,0.6c-1.4-0.1-2.5-1.3-2.4-2.7c0,0,0,0,0-0.1c0-1.5,1.1-2.7,2.6-2.7
				c0.1,0,0.2,0,0.2,0c0.8,0,1.5,0.2,2.2,0.5v5.1c0.1,1.3-0.8,2.4-2,2.5c-0.2,0-0.3,0-0.5,0c-0.8,0-1.6-0.2-2.3-0.6l0.5-0.9
				c0.5,0.4,1.2,0.5,1.8,0.5c0.7,0.1,1.3-0.4,1.3-1.1c0-0.1,0-0.2,0-0.3L1066.7,2924.2z M1066.7,2920.6c-0.3-0.1-0.6-0.2-0.9-0.2
				c-0.9,0-1.6,0.6-1.6,1.5c0,0.1,0,0.2,0,0.3c0,0.7,0.4,1.7,1.4,1.7c0.5,0,0.9-0.2,1.2-0.6L1066.7,2920.6z"/>
		</g>
		<g transform="translate(50.384 -489.732)">
			<g transform="translate(40.469 20.623)">
				<path class="st1" d="M1042.9,3003.2c-18.5,0-33.4-15-33.4-33.4c0-18.4,14.9-33.4,33.4-33.4s33.4,15,33.4,33.4
					C1076.2,2988.2,1061.2,3003.2,1042.9,3003.2z M1042.9,2939.2c-16.9,0-30.6,13.6-30.6,30.6c0,16.9,13.7,30.6,30.6,30.6
					c16.9,0,30.6-13.6,30.6-30.6C1073.4,2952.9,1059.7,2939.2,1042.9,2939.2L1042.9,2939.2z"/>
			</g>
			<g transform="translate(20.235)">
				<path class="st1" d="M1045.8,3006.3c-18.5,0-33.4-15-33.4-33.4s14.9-33.4,33.4-33.4c18.5,0,33.4,15,33.4,33.4
					C1079.2,2991.3,1064.3,3006.3,1045.8,3006.3z M1045.8,2942.3c-16.9,0-30.6,13.6-30.6,30.6s13.7,30.6,30.6,30.6
					s30.6-13.6,30.6-30.6S1062.8,2942.3,1045.8,2942.3L1045.8,2942.3z"/>
			</g>
			<g transform="translate(0 20.623)">
				<path class="st1" d="M1048.8,3003.2c-18.5,0-33.4-15-33.4-33.4c0-18.4,14.9-33.4,33.4-33.4s33.4,15,33.4,33.4
					C1082.2,2988.2,1067.3,3003.2,1048.8,3003.2z M1048.8,2939.2c-16.9,0-30.6,13.6-30.6,30.6c0,16.9,13.7,30.6,30.6,30.6
					c16.9,0,30.6-13.6,30.6-30.6C1079.4,2952.9,1065.7,2939.2,1048.8,2939.2L1048.8,2939.2z"/>
			</g>
			<g transform="translate(20.235 40.469)">
				<path class="st1" d="M1045.8,3000.2c-18.5,0-33.4-15-33.4-33.4c0-18.4,14.9-33.4,33.4-33.4c18.5,0,33.4,15,33.4,33.4
					C1079.2,2985.2,1064.3,3000.2,1045.8,3000.2z M1045.8,2936.3c-16.9,0-30.6,13.6-30.6,30.6c0,16.9,13.7,30.6,30.6,30.6
					s30.6-13.6,30.6-30.6C1076.4,2949.9,1062.8,2936.3,1045.8,2936.3L1045.8,2936.3z"/>
			</g>
		</g>
	</g>
</g>
<text transform="matrix(1 0 0 1 34.2008 201.3755)" class="st2 st3 st4">MIETWOHNUNGEN</text>
</svg>
