<?xml version="1.0" encoding="utf-8"?>
<!-- Generator: Adobe Illustrator 24.3.0, SVG Export Plug-In . SVG Version: 6.00 Build 0)  -->
<svg version="1.1" id="Слой_1" xmlns="http://www.w3.org/2000/svg" xmlns:xlink="http://www.w3.org/1999/xlink" x="0px" y="0px"
	 viewBox="0 0 219 240.9" style="enable-background:new 0 0 219 240.9;" xml:space="preserve">
<style type="text/css">
	.st0{fill:#00605B;}
	.st1{fill:#FFFFFF;}
	.st2{font-family:'SemplicitaPro-Medium';}
	.st3{font-size:12px;}
</style>
<g transform="translate(0 517.02)">
	<g transform="translate(0 -517.02)">
		<rect class="st0" width="219" height="217.4"/>
	</g>
	<g transform="translate(30.06 -355.606)">
		<path class="st1" d="M9.1,10.8V8.4h7.5c-0.1,6.7-4.2,9.5-8.4,9.5C3.1,18-1.2,14.1-1.3,9V8.9c0-5,4.1-9.1,9.1-9.1
			c0.1,0,0.1,0,0.2,0c2.4-0.1,4.8,0.7,6.6,2.3l-1.5,2.2c-1.4-1.2-3.2-1.9-5.1-1.8C4.7,2.5,1.9,5.1,1.8,8.4c0,0.2,0,0.3,0,0.5
			c0,3.4,2.7,6.2,6.3,6.2c2.9,0,5.2-1.8,5.4-4.3H9.1z"/>
		<path class="st1" d="M31.7,17.4l-1.6-3.3h-8l-1.5,3.3h-3.2l8.8-17.8L35,17.4H31.7z M26.5,6.1c-0.1-0.3-0.2-0.5-0.3-0.8
			c-0.1,0.3-0.2,0.5-0.3,0.8l-2.4,5.3H29L26.5,6.1z"/>
		<path class="st1" d="M46.4,17.4L40.5,11h-0.4v6.3h-2.9V0.3h3.7c3.1,0,7.3,0.8,7.3,5.3c-0.1,2.5-2,4.6-4.6,5l6.8,6.8H46.4z
			 M41.2,8.5c2.5,0,3.9-1.3,3.9-2.8c0-1.8-1.1-2.8-3.7-2.8h-1.3v5.6H41.2z"/>
		<path class="st1" d="M55.4,17.4V2.9h-5.1V0.3h13.1v2.6h-5.1v14.5C58.3,17.4,55.4,17.4,55.4,17.4z"/>
		<path class="st1" d="M66.3,17.4V0.3h9.9v2.6h-7.1v4h5.8v2.7h-5.7v5.1h7.7v2.6H66.3z"/>
		<path class="st1" d="M83.1,6.5v10.9h-2.9V-0.2L93,11.5V0.2h2.9V18L83.1,6.5z"/>
		<path class="st1" d="M100.3,17.4V0.3h3.8c4.1,0,7.2,1.3,7.2,5.4c0,3.4-2.1,5.7-6.8,5.7h-1.2v5.8L100.3,17.4z M104.3,8.9
			c2.5,0,3.9-1.3,3.9-3.1c0-1.7-1.1-2.8-3.4-2.8h-1.6v5.9H104.3z"/>
		<path class="st1" d="M126.6,17.4l-1.6-3.3h-8l-1.5,3.3h-3.2L121-0.4l8.8,17.8H126.6z M121.3,6.1c-0.1-0.3-0.2-0.5-0.3-0.8
			c-0.1,0.3-0.2,0.5-0.3,0.8l-2.4,5.3h5.6L121.3,6.1z"/>
		<path class="st1" d="M141.2,17.4l-5.9-6.3h-0.5v6.3h-2.9V0.3h3.7c3.1,0,7.3,0.8,7.3,5.3c-0.1,2.5-2,4.6-4.5,5l6.8,6.8H141.2z
			 M136,8.5c2.5,0,3.9-1.3,3.9-2.8c0-1.8-1.1-2.8-3.7-2.8h-1.4v5.6H136z"/>
		<path class="st1" d="M157.2,17.4l-7.6-7v7h-2.9V0.3h2.9v7l6.5-7h3.8l-8.2,8.4l9.8,8.8H157.2z"/>
	</g>
	<g transform="translate(79.342 -333.795)">
		<path class="st1" d="M5.3,9.9L1.1,6.1v3.8h-1.6V0.5h1.6v3.8l3.6-3.8h2L2.2,5.1l5.4,4.8H5.3z"/>
		<path class="st1" d="M11,10c-1.8,0.1-3.4-1.4-3.4-3.2l0,0C7.6,5,9.1,3.5,11,3.5h0.1c1.8,0,3.4,1.4,3.4,3.2l0,0
			C14.4,8.6,12.9,10.1,11,10C11.1,10,11.1,10,11,10z M12.9,6.8c0.1-1-0.7-2-1.7-2.1h-0.1c-1.1,0-1.9,0.9-1.9,2c0,0.1,0,0.1,0,0.2
			C9,8,9.9,8.9,11,8.9l0,0c1,0,1.8-0.8,1.8-1.8C12.9,6.9,12.9,6.9,12.9,6.8z"/>
		<path class="st1" d="M15.6,9.9V3.7h1.4v1c0.1-0.3,0.6-1.1,1.3-1.1c0.4,0,0.8,0.1,1.1,0.3L19,5.3C18.8,5.1,18.5,5,18.2,5
			c-0.7,0-1.1,0.8-1.1,1.6V10L15.6,9.9z"/>
		<path class="st1" d="M24.7,9.9V6.5c0-1.1-0.2-1.7-1.2-1.7c-0.6,0-1.1,0.3-1.4,0.7v4.4h-1.4V3.7H22v0.6c0.5-0.5,1.2-0.8,2-0.8
			c1.3,0,2.1,0.7,2.1,2.2v4.1L24.7,9.9z"/>
		<path class="st1" d="M33.5,9.2c-0.8,0.6-1.7,0.8-2.6,0.8c-1.7,0.2-3.4-1.1-3.5-2.8c0-0.1,0-0.3,0-0.4c-0.1-1.7,1.2-3.2,3-3.3
			c0.1,0,0.2,0,0.3,0c1.6,0,3,1.2,3,2.9c0,0.1,0,0.2,0,0.4v0.6h-4.9c0,0.7,0.7,1.4,2.1,1.4c0.7,0,1.4-0.2,1.9-0.6L33.5,9.2z
			 M32.2,6.1c0-0.8-0.6-1.5-1.5-1.5c0,0,0,0-0.1,0c-0.9,0-1.6,0.6-1.7,1.5H32.2z"/>
		<path class="st1" d="M39.1,3.7h1.4v5.5c-0.8,0.6-1.8,0.9-2.7,0.9c-1.6,0-2.8-0.8-2.8-2.4v-4h1.4v3.6c0,1.2,0.7,1.5,1.5,1.5
			c0.4,0,0.8-0.1,1.2-0.3V3.7z"/>
		<path class="st1" d="M42-0.3h1.4V4c0.6-0.4,1.2-0.6,1.9-0.6c1.9,0,2.8,1.6,2.8,3.2c0,1.8-1.4,3.3-3.2,3.3c-0.1,0-0.2,0-0.3,0
			c-0.9,0-1.9-0.3-2.7-0.8L42-0.3z M43.6,8.5c0.4,0.3,0.8,0.4,1.2,0.3c1,0,1.9-0.8,2-1.8c0-0.1,0-0.2,0-0.3c0-1.1-0.6-2-1.6-2
			c-0.6,0-1.1,0.2-1.5,0.6L43.6,8.5z"/>
		<path class="st1" d="M53.7,3.7h1.4v5.5c-0.8,0.6-1.8,0.9-2.7,0.9c-1.6,0-2.8-0.8-2.8-2.4v-4H51v3.6c0,1.2,0.7,1.6,1.5,1.6
			c0.4,0,0.8-0.1,1.2-0.3L53.7,3.7z"/>
		<path class="st1" d="M56.8,9.9V3.7h1.4v1c0.1-0.3,0.6-1.1,1.3-1.1c0.4,0,0.8,0.1,1.1,0.3l-0.5,1.4C59.9,5.1,59.6,5,59.3,5
			c-0.7,0-1.1,0.8-1.1,1.6V10L56.8,9.9z"/>
		<path class="st1" d="M65.8,9.3c-0.4,0.5-1,0.7-1.7,0.7c-1.7-0.1-3-1.5-2.9-3.2V6.7c0-1.8,1.3-3.2,3.1-3.3c0.1,0,0.2,0,0.3,0
			c0.9,0,1.8,0.2,2.6,0.6v6c0.2,1.5-0.9,2.9-2.4,3c-0.2,0-0.4,0-0.6,0c-1,0-2-0.2-2.8-0.7l0.6-1.1c0.6,0.4,1.4,0.7,2.2,0.7
			c0.8,0.1,1.5-0.5,1.6-1.3c0-0.1,0-0.2,0-0.3L65.8,9.3z M65.8,4.9c-0.3-0.1-0.7-0.2-1.1-0.2c-1,0-1.9,0.7-1.9,1.8
			c0,0.1,0,0.2,0,0.3c0,0.9,0.5,2.1,1.7,2.1c0.6,0,1.1-0.3,1.4-0.8L65.8,4.9z"/>
	</g>
	<g transform="translate(50.384 -489.732)">
		<g transform="translate(40.469 20.623)">
			<path class="st1" d="M39.6,77.8c-22,0-39.9-17.7-39.9-39.5c0-21.9,17.9-39.6,39.9-39.6s39.8,17.7,39.9,39.6
				C79.4,60,61.5,77.8,39.6,77.8z M39.6,2C19.4,2.1,3.1,18.2,3,38.3c0,20,16.3,36.2,36.4,36.2s36.4-16.2,36.4-36.2
				C76,18.2,59.7,2.1,39.6,2L39.6,2z"/>
		</g>
		<g transform="translate(20.235)">
			<path class="st1" d="M39.3,77.6c-22,0-39.9-17.7-39.9-39.5c0-21.9,17.9-39.6,39.9-39.6s39.8,17.7,39.9,39.6
				C79.1,59.9,61.2,77.6,39.3,77.6z M39.3,1.8C19.1,1.9,2.7,18.1,2.7,38.1c0,20,16.3,36.2,36.4,36.2s36.4-16.2,36.4-36.2
				C75.7,18.1,59.4,1.9,39.3,1.8L39.3,1.8z"/>
		</g>
		<g transform="translate(0 20.623)">
			<path class="st1" d="M38.9,77.8C16.9,77.8-1,60-1,38.3C-1,16.4,16.9-1.3,38.9-1.3s39.8,17.7,39.9,39.6
				C78.7,60,60.9,77.8,38.9,77.8z M38.9,2C18.7,2.1,2.5,18.2,2.4,38.3c0,20,16.3,36.2,36.4,36.2s36.4-16.2,36.4-36.2
				C75.4,18.2,59,2.1,38.9,2L38.9,2z"/>
		</g>
		<g transform="translate(20.235 40.469)">
			<path class="st1" d="M39.3,77.9c-22,0-39.9-17.7-39.9-39.5c0-21.9,17.9-39.6,39.9-39.6s39.8,17.7,39.9,39.6
				C79.1,60.2,61.2,77.9,39.3,77.9z M39.3,2.1C19.1,2.2,2.7,18.4,2.7,38.4c0,20,16.3,36.2,36.4,36.2s36.4-16.2,36.4-36.2
				C75.7,18.4,59.4,2.1,39.3,2.1L39.3,2.1z"/>
		</g>
	</g>
</g>
<text transform="matrix(1 0 0 1 63.305 237.0651)" class="st0 st2 st3">ÄRZTEZENTRUM</text>
</svg>
