<?xml version="1.0" encoding="utf-8"?>
<!-- Generator: Adobe Illustrator 24.3.0, SVG Export Plug-In . SVG Version: 6.00 Build 0)  -->
<svg version="1.1" id="Слой_1" xmlns="http://www.w3.org/2000/svg" xmlns:xlink="http://www.w3.org/1999/xlink" x="0px" y="0px"
	 viewBox="0 0 215.5 236.5" style="enable-background:new 0 0 215.5 236.5;" xml:space="preserve">
<style type="text/css">
	.st0{fill:#163253;}
	.st1{fill:#FFFFFF;}
	.st2{font-family:'Roboto-Regular';}
	.st3{font-size:12px;}
</style>
<g transform="translate(0 249.702)">
	<g transform="translate(0 -249.702)">
		<rect class="st0" width="215.5" height="213.9"/>
	</g>
	<g transform="translate(29.578 -90.872)">
		<path class="st1" d="M9,10.7V8.2h7.4c-0.1,6.5-4.2,9.3-8.3,9.3c-5,0.2-9.1-3.7-9.2-8.6V8.9c0-4.9,4-8.9,8.9-8.9C7.9,0,7.9,0,8,0
			c2.3-0.1,4.7,0.7,6.5,2.2L13,4.3C11.6,3.1,9.9,2.4,8,2.5C4.6,2.4,1.9,5,1.9,8.4c0,0.1,0,0.3,0,0.5c0,3.4,2.7,6.1,6.2,6.1
			c2.9,0,5.1-1.8,5.3-4.2L9,10.7z"/>
		<path class="st1" d="M31.3,17.1l-1.5-3.3h-7.9l-1.5,3.3h-3.2l8.7-17.5l8.6,17.5H31.3z M26.1,6c-0.1-0.3-0.2-0.5-0.3-0.8
			c-0.1,0.3-0.2,0.5-0.3,0.8l-2.4,5.2h5.5L26.1,6z"/>
		<path class="st1" d="M45.6,17.1l-5.8-6.2h-0.4v6.2h-2.8V0.3h3.6c3.1,0,7.2,0.8,7.2,5.2c-0.1,2.5-1.9,4.6-4.5,5l6.7,6.6h-4V17.1z
			 M40.5,8.5c2.5,0,3.8-1.3,3.8-2.8c0-1.8-1.1-2.7-3.6-2.7h-1.3v5.5H40.5z"/>
		<path class="st1" d="M54.7,17.1V2.9h-5.1V0.3h12.9v2.6h-5v14.3h-2.8V17.1z"/>
		<path class="st1" d="M65.2,17.1V0.3h9.8v2.6h-7v4h5.6v2.6H68v5h7.7v2.6H65.2V17.1z"/>
		<path class="st1" d="M81.8,6.4v10.7H79V-0.2l12.6,11.6V0.3h2.8v17.5L81.8,6.4z"/>
		<path class="st1" d="M98.7,17.1V0.3h3.7c4.1,0,7.1,1.3,7.1,5.4c0,3.4-2.1,5.6-6.7,5.6h-1.2v5.8L98.7,17.1z M102.8,8.8
			c2.5,0,3.8-1.3,3.8-3.1c0-1.7-1.1-2.7-3.3-2.7h-1.6v5.8H102.8z"/>
		<path class="st1" d="M124.6,17.1l-1.5-3.3h-7.9l-1.5,3.3h-3.2l8.7-17.5l8.6,17.5H124.6z M119.4,6c-0.1-0.3-0.2-0.5-0.3-0.8
			c-0.1,0.3-0.2,0.5-0.3,0.8l-2.4,5.2h5.5L119.4,6z"/>
		<path class="st1" d="M138.9,17.1l-5.8-6.2h-0.4v6.2h-2.8V0.3h3.6c3.1,0,7.2,0.8,7.2,5.2c-0.1,2.5-1.9,4.6-4.5,5l6.7,6.6h-4V17.1z
			 M133.8,8.5c2.5,0,3.8-1.3,3.8-2.8c0-1.8-1.1-2.7-3.6-2.7h-1.3v5.5H133.8z"/>
		<path class="st1" d="M154.7,17.1l-7.5-6.9v6.9h-2.8V0.3h2.8v6.9l6.4-6.9h3.8l-8.2,8.3l9.7,8.7h-4.2V17.1z"/>
	</g>
	<g transform="translate(78.072 -69.413)">
		<path class="st1" d="M5.2,9.7L1.2,6v3.7h-1.6V0.6h1.5v3.7l3.6-3.7h2L2.2,5l5.3,4.7H5.2z"/>
		<path class="st1" d="M10.9,9.9c-1.8,0-3.2-1.4-3.3-3.2c0,0,0,0,0-0.1c0-1.8,1.5-3.2,3.2-3.2h0.1c1.8,0,3.2,1.4,3.3,3.2l0,0
			C14.2,8.5,12.7,9.9,10.9,9.9L10.9,9.9z M12.7,6.7c0.1-1-0.7-1.9-1.7-2h-0.1c-1,0-1.9,0.9-1.8,1.9c0,0.1,0,0.1,0,0.2
			c-0.1,1,0.7,1.9,1.8,2l0,0c1,0,1.8-0.8,1.8-1.8C12.7,6.8,12.7,6.7,12.7,6.7L12.7,6.7z"/>
		<path class="st1" d="M15.5,9.7V3.6h1.4v0.9c0.1-0.3,0.6-1.1,1.3-1.1c0.4,0,0.8,0.1,1.1,0.3l-0.5,1.4c-0.2-0.2-0.5-0.3-0.8-0.3
			c-0.7,0-1.1,0.8-1.1,1.5v3.4H15.5z"/>
		<path class="st1" d="M24.3,9.7V6.4c0-1.1-0.2-1.7-1.2-1.7c-0.5,0-1,0.3-1.4,0.7v4.3h-1.4V3.6h1.4v0.6c0.5-0.5,1.2-0.8,2-0.8
			c1.3,0,2.1,0.7,2.1,2.2v4.1H24.3z"/>
		<path class="st1" d="M32.9,9.1c-0.7,0.5-1.6,0.8-2.6,0.8C28.7,10,27.1,8.8,27,7.1c0-0.1,0-0.3,0-0.4c-0.1-1.7,1.2-3.2,2.9-3.3
			c0.1,0,0.2,0,0.3,0c1.6,0,2.9,1.2,3,2.8c0,0.1,0,0.2,0,0.3v0.6h-4.8c0.1,0.8,0.8,1.5,2.1,1.5c0.7,0,1.3-0.2,1.9-0.6L32.9,9.1z
			 M31.7,6c0-0.8-0.6-1.5-1.5-1.5c0,0,0,0-0.1,0c-0.9,0-1.6,0.6-1.7,1.5H31.7z"/>
		<path class="st1" d="M38.4,3.6h1.4V9c-0.8,0.6-1.7,0.9-2.7,0.8c-1.6,0-2.7-0.8-2.7-2.4V3.6h1.4v3.6c0,1.2,0.7,1.5,1.5,1.5
			c0.4,0,0.8-0.1,1.1-0.3V3.6z"/>
		<path class="st1" d="M41.5-0.3h1.4V4c0.5-0.4,1.2-0.5,1.8-0.5c1.6,0,2.8,1.4,2.8,3c0,0.1,0,0.1,0,0.2c0,1.8-1.4,3.2-3.1,3.3
			c-0.1,0-0.2,0-0.3,0c-0.9,0-1.8-0.3-2.6-0.8C41.5,9.2,41.5-0.3,41.5-0.3z M42.9,8.4c0.4,0.2,0.8,0.3,1.2,0.3c1,0,1.9-0.8,2-1.8
			c0-0.1,0-0.2,0-0.3c0-1.1-0.6-2-1.6-2c-0.6,0-1.1,0.2-1.5,0.6v3.2H42.9z"/>
		<path class="st1" d="M52.8,3.6h1.5V9c-0.8,0.6-1.7,0.9-2.7,0.8c-1.6,0-2.7-0.8-2.7-2.4V3.6h1.4v3.6c0,1.2,0.7,1.5,1.5,1.5
			c0.4,0,0.8-0.1,1.1-0.3L52.8,3.6z"/>
		<path class="st1" d="M55.9,9.7V3.6h1.4v0.9c0.1-0.3,0.6-1.1,1.3-1.1c0.4,0,0.8,0.1,1.1,0.3L59.2,5c-0.2-0.1-0.5-0.2-0.8-0.2
			c-0.7,0-1.1,0.8-1.1,1.5v3.4H55.9z"/>
		<path class="st1" d="M64.8,9.2c-0.4,0.4-1,0.7-1.7,0.7c-1.6-0.1-2.9-1.5-2.8-3.1V6.7c0-1.7,1.3-3.2,3.1-3.2c0.1,0,0.2,0,0.3,0
			c0.9,0,1.8,0.2,2.6,0.6V10c0.2,1.5-0.9,2.8-2.4,3c-0.2,0-0.4,0-0.5,0c-1,0-1.9-0.2-2.8-0.7l0.6-1.1c0.6,0.4,1.4,0.6,2.1,0.6
			c0.8,0.1,1.5-0.5,1.6-1.3c0-0.1,0-0.2,0-0.3L64.8,9.2z M64.8,4.9c-0.3-0.2-0.7-0.2-1.1-0.3c-1,0-1.9,0.7-1.9,1.7
			c0,0.1,0,0.2,0,0.3c0,0.9,0.5,2,1.6,2c0.6,0,1.1-0.3,1.4-0.7V4.9z"/>
	</g>
	<g transform="translate(49.576 -222.849)">
		<g transform="translate(39.82 20.291)">
			<path class="st1" d="M38.9,76.6c-21.6-0.1-39.2-17.4-39.2-39c0-21.5,17.6-38.9,39.2-38.9c21.7,0,39.3,17.4,39.3,38.9
				C78.1,59.2,60.6,76.5,38.9,76.6z M38.9,2.1C19.1,2.1,3.1,18,3.1,37.6c0,19.7,16,35.7,35.8,35.7c19.9,0,35.9-15.9,35.9-35.7
				C74.8,18,58.8,2.1,38.9,2.1L38.9,2.1z"/>
		</g>
		<g transform="translate(19.911)">
			<path class="st1" d="M38.6,76.5C17,76.4-0.6,59-0.6,37.5C-0.6,16,17-1.4,38.6-1.4c21.7,0,39.3,17.4,39.3,38.9
				C77.9,59,60.3,76.4,38.6,76.5z M38.6,1.9C18.8,1.9,2.8,17.8,2.8,37.5c0,19.7,16,35.7,35.8,35.7c19.9,0,35.9-15.9,35.9-35.7
				C74.5,17.8,58.5,1.9,38.6,1.9L38.6,1.9z"/>
		</g>
		<g transform="translate(0 20.291)">
			<path class="st1" d="M38.3,76.6c-21.6-0.1-39.2-17.4-39.2-39c0-21.5,17.6-38.9,39.2-38.9c21.7,0,39.3,17.4,39.3,38.9
				C77.5,59.2,60,76.5,38.3,76.6z M38.3,2.1C18.5,2.1,2.5,18,2.5,37.6c0,19.7,16,35.7,35.8,35.7c19.9,0,35.9-15.9,35.9-35.7
				C74.2,18,58.2,2.1,38.3,2.1L38.3,2.1z"/>
		</g>
		<g transform="translate(19.911 39.818)">
			<path class="st1" d="M38.6,76.8C17,76.7-0.6,59.3-0.6,37.8C-0.6,16.3,17-1.1,38.6-1.1c21.7,0,39.3,17.4,39.3,38.9
				C77.9,59.3,60.3,76.7,38.6,76.8z M38.6,2.2C18.8,2.2,2.8,18.1,2.8,37.8c0,19.7,16,35.7,35.8,35.7c19.9,0,35.9-15.9,35.9-35.7
				C74.5,18.1,58.5,2.2,38.6,2.2z"/>
		</g>
	</g>
</g>
<text transform="matrix(1 0 0 1 71.3778 233.5027)" class="st0 st2 st3">INVESTOREN</text>
</svg>
