<?xml version="1.0" encoding="utf-8"?>
<!-- Generator: Adobe Illustrator 24.3.0, SVG Export Plug-In . SVG Version: 6.00 Build 0)  -->
<svg version="1.1" id="Слой_1" xmlns="http://www.w3.org/2000/svg" xmlns:xlink="http://www.w3.org/1999/xlink" x="0px" y="0px"
	 viewBox="0 0 219 219" style="enable-background:new 0 0 219 219;" xml:space="preserve">
<style type="text/css">
	.st0{fill:#00605B;}
	.st1{fill:#FFFFFF;}
	.st2{font-family:'MyriadPro-Regular';}
	.st3{font-size:12px;}
</style>
<g transform="translate(0 517.02)">
	<g transform="translate(0 -517.02)">
		<rect x="1.7" y="1.7" class="st0" width="215.7" height="215.7"/>
		<path class="st1" d="M219,219H0V0h219V219z M3.3,215.7h212.4V3.3H3.3V215.7z"/>
	</g>
	<g transform="translate(30.06 -355.606)">
		<path class="st1" d="M10.2,11.2V8.8h7.4c-0.1,6.6-4.1,9.4-8.3,9.4C4.3,18.3,0.1,14.4,0,9.4c0,0,0-0.1,0-0.1c0-5,4-9,9-9
			c0.1,0,0.1,0,0.2,0c2.4-0.1,4.7,0.7,6.5,2.3l-1.5,2.2c-1.4-1.2-3.2-1.9-5-1.8C5.9,2.9,3.1,5.5,3,8.8c0,0.2,0,0.3,0,0.5
			c0,3.4,2.7,6.2,6.2,6.2c2.9,0,5.1-1.8,5.3-4.3L10.2,11.2z"/>
		<path class="st1" d="M32.5,17.7l-1.6-3.3H23l-1.5,3.3h-3.2L27,0l8.7,17.7H32.5z M27.3,6.5C27.2,6.2,27.1,6,27,5.7
			c-0.1,0.3-0.2,0.5-0.3,0.8l-2.4,5.3h5.5L27.3,6.5z"/>
		<path class="st1" d="M46.9,17.7l-5.8-6.3h-0.4v6.3h-2.9v-17h3.6c3.1,0,7.2,0.8,7.2,5.3c-0.1,2.5-2,4.6-4.5,5l6.7,6.7L46.9,17.7z
			 M41.8,8.9c2.5,0,3.8-1.3,3.8-2.8c0-1.8-1.1-2.8-3.6-2.8h-1.3v5.6L41.8,8.9z"/>
		<path class="st1" d="M55.8,17.7V3.3h-5V0.7h12.9v2.6h-5v14.4H55.8z"/>
		<path class="st1" d="M66.5,17.7v-17h9.8v2.6h-7v4H75V10h-5.6v5.1H77v2.6L66.5,17.7z"/>
		<path class="st1" d="M83.1,6.9l0,10.8h-2.9l0-17.5l12.6,11.6l0-11.2h2.9l0,17.7L83.1,6.9z"/>
		<path class="st1" d="M100,17.7v-17h3.7c4,0,7.1,1.3,7.1,5.4c0,3.4-2.1,5.7-6.7,5.7h-1.2v5.8L100,17.7z M104,9.3
			c2.5,0,3.8-1.3,3.8-3.1c0-1.7-1.1-2.8-3.3-2.8h-1.6v5.9L104,9.3z"/>
		<path class="st1" d="M125.9,17.7l-1.6-3.3h-7.9l-1.5,3.3h-3.2L120.4,0l8.7,17.7H125.9z M120.7,6.5c-0.1-0.3-0.2-0.5-0.3-0.8
			c-0.1,0.3-0.2,0.5-0.3,0.8l-2.4,5.3h5.5L120.7,6.5z"/>
		<path class="st1" d="M140.3,17.7l-5.8-6.3H134v6.3h-2.9v-17h3.6c3.1,0,7.2,0.8,7.2,5.3c-0.1,2.5-2,4.6-4.4,5l6.7,6.7L140.3,17.7z
			 M135.2,8.9c2.5,0,3.8-1.3,3.8-2.8c0-1.8-1.1-2.8-3.6-2.8H134v5.6L135.2,8.9z"/>
		<path class="st1" d="M156.1,17.7l-7.5-6.9v6.9h-2.9v-17h2.9v6.9l6.4-6.9h3.7L150.6,9l9.7,8.7L156.1,17.7z"/>
	</g>
	<g transform="translate(79.342 -333.795)">
		<path class="st1" d="M5.7,10.1L1.6,6.3v3.8H0V0.8h1.6v3.8l3.5-3.8h2L2.7,5.3L8,10.1L5.7,10.1z"/>
		<path class="st1" d="M11.3,10.2C9.5,10.3,8,8.8,8,7C8,7,8,7,8,7c0-1.8,1.5-3.3,3.3-3.3c0,0,0.1,0,0.1,0c1.8,0,3.3,1.4,3.3,3.2
			c0,0,0,0,0,0C14.7,8.8,13.2,10.3,11.3,10.2C11.4,10.2,11.4,10.2,11.3,10.2z M13.2,7c0.1-1-0.7-2-1.7-2.1c0,0-0.1,0-0.1,0
			c-1.1,0-1.9,0.9-1.9,2c0,0.1,0,0.1,0,0.2c-0.1,1.1,0.8,2,1.8,2c0,0,0,0,0,0c1,0,1.8-0.8,1.8-1.8C13.2,7.1,13.2,7.1,13.2,7z"/>
		<path class="st1" d="M15.9,10.1V3.9h1.4v1c0.1-0.3,0.6-1.1,1.3-1.1c0.4,0,0.8,0.1,1.1,0.3l-0.5,1.4c-0.2-0.2-0.5-0.3-0.8-0.3
			c-0.7,0-1.1,0.8-1.1,1.6v3.4L15.9,10.1z"/>
		<path class="st1" d="M24.8,10.1V6.7c0-1.1-0.2-1.7-1.2-1.7c-0.6,0-1.1,0.3-1.4,0.7v4.4h-1.4V3.9h1.4v0.6c0.5-0.5,1.2-0.8,2-0.8
			c1.3,0,2.1,0.7,2.1,2.2v4.1L24.8,10.1z"/>
		<path class="st1" d="M33.5,9.4c-0.8,0.6-1.7,0.8-2.6,0.8c-1.7,0.2-3.3-1.1-3.4-2.8c0-0.1,0-0.3,0-0.4c-0.1-1.7,1.2-3.2,3-3.3
			c0.1,0,0.2,0,0.3,0c1.6,0,3,1.2,3,2.9c0,0.1,0,0.2,0,0.4v0.6h-4.8C29,8.3,29.7,9,31.1,9c0.7,0,1.4-0.2,1.9-0.6L33.5,9.4z
			 M32.2,6.3c0-0.8-0.6-1.5-1.5-1.5c0,0,0,0-0.1,0c-0.9,0-1.6,0.6-1.7,1.5H32.2z"/>
		<path class="st1" d="M39,3.9h1.4v5.5c-0.8,0.6-1.8,0.9-2.7,0.9c-1.6,0-2.8-0.8-2.8-2.4v-4h1.4v3.6C36.3,8.7,37,9,37.8,9
			c0.4,0,0.8-0.1,1.2-0.3L39,3.9z"/>
		<path class="st1" d="M41.9,0h1.4v4.2c0.6-0.4,1.2-0.6,1.9-0.6c1.9,0,2.8,1.6,2.8,3.2c0,1.8-1.4,3.3-3.2,3.3c-0.1,0-0.2,0-0.3,0
			c-0.9,0-1.9-0.3-2.7-0.8L41.9,0z M43.4,8.7C43.8,9,44.2,9.1,44.6,9c1,0,1.9-0.8,2-1.8c0-0.1,0-0.2,0-0.3c0-1.1-0.6-2-1.6-2
			c-0.6,0-1.1,0.2-1.5,0.6L43.4,8.7z"/>
		<path class="st1" d="M53.4,3.9h1.4v5.5c-0.8,0.6-1.8,0.9-2.7,0.9c-1.6,0-2.8-0.8-2.8-2.4v-4h1.4v3.6c0,1.2,0.7,1.6,1.5,1.6
			c0.4,0,0.8-0.1,1.2-0.3L53.4,3.9z"/>
		<path class="st1" d="M56.4,10.1V3.9h1.4v1c0.1-0.3,0.6-1.1,1.3-1.1c0.4,0,0.8,0.1,1.1,0.3l-0.5,1.4c-0.2-0.2-0.5-0.3-0.8-0.3
			c-0.7,0-1.1,0.8-1.1,1.6v3.4L56.4,10.1z"/>
		<path class="st1" d="M65.3,9.5c-0.4,0.5-1,0.7-1.7,0.7c-1.7-0.1-3-1.5-2.9-3.2c0,0,0-0.1,0-0.1c0-1.8,1.3-3.2,3.1-3.3
			c0.1,0,0.2,0,0.3,0c0.9,0,1.8,0.2,2.6,0.6v6c0.2,1.5-0.9,2.9-2.4,3c-0.2,0-0.4,0-0.6,0c-1,0-2-0.2-2.8-0.7l0.6-1.1
			c0.6,0.4,1.4,0.7,2.2,0.7c0.8,0.1,1.5-0.5,1.6-1.3c0-0.1,0-0.2,0-0.3L65.3,9.5z M65.3,5.1C65,5,64.6,4.9,64.2,4.9
			c-1,0-1.9,0.7-1.9,1.8c0,0.1,0,0.2,0,0.3c0,0.9,0.5,2.1,1.7,2.1c0.6,0,1.1-0.3,1.4-0.8L65.3,5.1z"/>
	</g>
	<g transform="translate(50.384 -489.732)">
		<g transform="translate(40.469 20.623)">
			<path class="st1" d="M39.3,78.5C17.6,78.5,0,60.9,0,39.3C0,17.6,17.6,0,39.3,0c21.7,0,39.2,17.6,39.3,39.3
				C78.5,60.9,60.9,78.5,39.3,78.5z M39.3,3.3C19.4,3.4,3.4,19.4,3.3,39.3c0,19.8,16.1,35.9,35.9,35.9c19.8,0,35.9-16.1,35.9-35.9
				C75.2,19.4,59.1,3.4,39.3,3.3L39.3,3.3z"/>
		</g>
		<g transform="translate(20.235)">
			<path class="st1" d="M39.3,78.5C17.6,78.5,0,60.9,0,39.3C0,17.6,17.6,0,39.3,0c21.7,0,39.2,17.6,39.3,39.3
				C78.5,60.9,60.9,78.5,39.3,78.5z M39.3,3.3C19.4,3.4,3.3,19.4,3.3,39.3c0,19.8,16.1,35.9,35.9,35.9c19.8,0,35.9-16.1,35.9-35.9
				C75.2,19.4,59.1,3.4,39.3,3.3L39.3,3.3z"/>
		</g>
		<g transform="translate(0 20.623)">
			<path class="st1" d="M39.3,78.5C17.6,78.5,0,60.9,0,39.3C0,17.6,17.6,0,39.3,0c21.7,0,39.2,17.6,39.3,39.3
				C78.5,60.9,60.9,78.5,39.3,78.5z M39.3,3.3C19.4,3.4,3.4,19.4,3.3,39.3c0,19.8,16.1,35.9,35.9,35.9c19.8,0,35.9-16.1,35.9-35.9
				C75.2,19.4,59.1,3.4,39.3,3.3L39.3,3.3z"/>
		</g>
		<g transform="translate(20.235 40.469)">
			<path class="st1" d="M39.3,78.5C17.6,78.5,0,60.9,0,39.3C0,17.6,17.6,0,39.3,0c21.7,0,39.2,17.6,39.3,39.3
				C78.5,60.9,60.9,78.5,39.3,78.5z M39.3,3.3C19.4,3.4,3.3,19.4,3.3,39.3c0,19.8,16.1,35.9,35.9,35.9c19.8,0,35.9-16.1,35.9-35.9
				C75.2,19.4,59.1,3.3,39.3,3.3L39.3,3.3z"/>
		</g>
	</g>
</g>
<text transform="matrix(1 0 0 1 107.1763 228.1768)" class="st2 st3">ÄRZTEZENTRUM</text>
</svg>
