<?xml version="1.0" encoding="utf-8"?>
<!-- Generator: Adobe Illustrator 24.3.0, SVG Export Plug-In . SVG Version: 6.00 Build 0)  -->
<svg version="1.1" id="Ebene_1" xmlns="http://www.w3.org/2000/svg" xmlns:xlink="http://www.w3.org/1999/xlink" x="0px" y="0px"
	 viewBox="0 0 272 272" style="enable-background:new 0 0 272 272;" xml:space="preserve">
<style type="text/css">
	.st0{clip-path:url(#SVGID_2_);}
	.st1{fill:#8D222C;}
	.st2{fill:#FFFFFF;}
</style>
<g>
	<defs>
		<rect id="SVGID_1_" y="0" width="272" height="272"/>
	</defs>
	<clipPath id="SVGID_2_">
		<use xlink:href="#SVGID_1_"  style="overflow:visible;"/>
	</clipPath>
	<g id="Zeichenfläche_3" class="st0">
		<g id="Gruppe_932" transform="translate(-85.575 1006.396)">
			<g id="Gruppe_417" transform="translate(112.575 -989.396)">
				<rect id="Rechteck_1467" x="2.7" y="2.7" class="st1" width="211.9" height="211.9"/>
				<g id="Gruppe_416">
					<path id="Pfad_842" class="st2" d="M217.3,217.3H0V0h217.3V217.3z M3.3,214H214V3.3H3.3L3.3,214z"/>
					<g id="Gruppe_405" transform="translate(29.109 160.141)">
						<path id="Pfad_843" class="st2" d="M10.1,11.1V8.7h7.3c-0.1,6.6-4.1,9.3-8.3,9.3c-4.9,0.1-9-3.7-9.1-8.6c0,0,0-0.1,0-0.1
							c0-4.9,4-8.9,8.9-8.9c0.1,0,0.1,0,0.2,0c2.4-0.1,4.7,0.7,6.5,2.3l-1.4,2.1c-1.4-1.2-3.2-1.9-5-1.8C5.8,2.8,3.1,5.5,3,8.8
							c0,0.2,0,0.3,0,0.5c0,3.4,2.7,6.1,6.1,6.2c2.9,0,5.1-1.8,5.3-4.3L10.1,11.1z"/>
						<path id="Pfad_844" class="st2" d="M32.2,17.6l-1.5-3.3h-7.8l-1.5,3.3h-3.2L26.8,0l8.6,17.6H32.2z M27.1,6.4
							c-0.1-0.3-0.2-0.5-0.3-0.8c-0.1,0.3-0.2,0.5-0.3,0.8L24,11.7h5.5L27.1,6.4z"/>
						<path id="Pfad_845" class="st2" d="M46.5,17.6l-5.7-6.2h-0.4v6.2h-2.9V0.7H41c3.1,0,7.2,0.8,7.2,5.2c-0.1,2.5-1.9,4.6-4.4,5
							l6.7,6.7L46.5,17.6z M41.4,8.9c2.5,0,3.8-1.3,3.8-2.8c0-1.8-1.1-2.8-3.6-2.8h-1.3v5.6H41.4z"/>
						<path id="Pfad_846" class="st2" d="M55.4,17.6V3.3h-5V0.7h12.8v2.6h-5v14.3H55.4z"/>
						<path id="Pfad_847" class="st2" d="M65.9,17.6V0.7h9.8v2.6h-6.9v4h5.6v2.6h-5.6V15h7.6v2.6H65.9z"/>
						<path id="Pfad_848" class="st2" d="M82.4,6.9l0,10.7h-2.9l0-17.4l12.5,11.6l0-11.1H95l0,17.5L82.4,6.9z"/>
						<path id="Pfad_849" class="st2" d="M99.2,17.6V0.7h3.7c4,0,7.1,1.3,7.1,5.4c0,3.4-2.1,5.7-6.7,5.7h-1.2v5.8L99.2,17.6z
							 M103.2,9.2c2.5,0,3.7-1.3,3.7-3.1c0-1.7-1.1-2.8-3.3-2.8h-1.6v5.9H103.2z"/>
						<path id="Pfad_850" class="st2" d="M124.9,17.6l-1.5-3.3h-7.8l-1.5,3.3h-3.2L119.5,0l8.6,17.6H124.9z M119.7,6.4
							c-0.1-0.3-0.2-0.5-0.3-0.8c-0.1,0.3-0.2,0.5-0.3,0.8l-2.4,5.2h5.5L119.7,6.4z"/>
						<path id="Pfad_851" class="st2" d="M139.2,17.6l-5.7-6.2H133v6.2h-2.9V0.7h3.6c3.1,0,7.2,0.8,7.2,5.2c-0.1,2.5-1.9,4.6-4.4,5
							l6.7,6.7L139.2,17.6z M134.1,8.9c2.5,0,3.8-1.3,3.8-2.8c0-1.8-1.1-2.8-3.6-2.8H133v5.6H134.1z"/>
						<path id="Pfad_852" class="st2" d="M154.9,17.6l-7.4-6.8v6.8h-2.9V0.7h2.9v6.9l6.4-6.9h3.7l-8.1,8.3l9.7,8.6H154.9z"/>
					</g>
					<g id="Gruppe_406" transform="translate(75.529 181.781)">
						<path id="Pfad_853" class="st2" d="M5.6,10L1.6,6.3V10H0V0.8h1.6v3.8L5,0.8h2L2.6,5.3L7.9,10L5.6,10z"/>
						<path id="Pfad_854" class="st2" d="M11.3,10.2C9.5,10.2,8,8.8,7.9,7c0,0,0,0,0-0.1c0-1.8,1.5-3.3,3.3-3.3c0,0,0.1,0,0.1,0
							c1.8,0,3.3,1.4,3.3,3.2c0,0,0,0,0,0C14.6,8.7,13.1,10.2,11.3,10.2C11.3,10.2,11.3,10.2,11.3,10.2z M13.1,6.9
							c0.1-1-0.7-2-1.7-2.1c0,0-0.1,0-0.1,0c-1,0-1.9,0.9-1.9,1.9c0,0.1,0,0.1,0,0.2c-0.1,1.1,0.7,2,1.8,2c0,0,0,0,0,0
							c1,0,1.8-0.8,1.8-1.8C13.1,7.1,13.1,7,13.1,6.9L13.1,6.9z"/>
						<path id="Pfad_855" class="st2" d="M15.8,10V3.8h1.4v0.9c0.1-0.3,0.6-1.1,1.3-1.1c0.4,0,0.8,0.1,1.1,0.3l-0.5,1.3
							C18.9,5.1,18.6,5,18.3,5c-0.7,0-1.1,0.8-1.1,1.5V10L15.8,10z"/>
						<path id="Pfad_856" class="st2" d="M24.6,10V6.6c0-1.1-0.2-1.7-1.2-1.7c-0.5,0-1.1,0.3-1.4,0.7V10h-1.4V3.8H22v0.6
							c0.5-0.5,1.2-0.8,2-0.8c1.3,0,2.1,0.7,2.1,2.2V10L24.6,10z"/>
						<path id="Pfad_857" class="st2" d="M33.2,9.3c-0.7,0.6-1.7,0.8-2.6,0.8c-1.7,0.2-3.2-1.1-3.4-2.8c0-0.1,0-0.3,0-0.4
							c-0.1-1.7,1.2-3.2,2.9-3.3c0.1,0,0.2,0,0.3,0c1.6,0,3,1.2,3,2.8c0,0.1,0,0.2,0,0.3v0.6h-4.7C28.8,8.2,29.5,9,30.8,9
							c0.7,0,1.4-0.2,1.9-0.6L33.2,9.3z M31.9,6.3c0-0.8-0.6-1.5-1.5-1.5c0,0,0,0-0.1,0c-0.9,0-1.6,0.6-1.7,1.5H31.9z"/>
						<path id="Pfad_858" class="st2" d="M38.6,3.8h1.4v5.5c-0.8,0.6-1.7,0.9-2.7,0.9c-1.6,0-2.8-0.8-2.8-2.4V3.8H36v3.6
							C36,8.6,36.7,9,37.5,9c0.4,0,0.8-0.1,1.1-0.3L38.6,3.8z"/>
						<path id="Pfad_859" class="st2" d="M41.6,0h1.4v4.2c0.5-0.4,1.2-0.5,1.8-0.5c1.6,0,2.9,1.4,2.8,3c0,0.1,0,0.1,0,0.2
							c0,1.8-1.4,3.3-3.2,3.3c-0.1,0-0.2,0-0.3,0c-0.9,0-1.8-0.3-2.6-0.8L41.6,0z M43.1,8.7C43.4,8.9,43.8,9,44.2,9
							c1,0,1.9-0.8,2-1.8c0-0.1,0-0.2,0-0.3c0-1.1-0.6-2-1.6-2c-0.6,0-1.1,0.2-1.5,0.6V8.7z"/>
						<path id="Pfad_860" class="st2" d="M53,3.8h1.4v5.5c-0.8,0.6-1.7,0.9-2.7,0.9c-1.6,0-2.8-0.8-2.8-2.4V3.8h1.4v3.6
							C50.3,8.6,51,9,51.8,9c0.4,0,0.8-0.1,1.1-0.3L53,3.8z"/>
						<path id="Pfad_861" class="st2" d="M56,10V3.8h1.4v0.9c0.1-0.3,0.6-1.1,1.3-1.1c0.4,0,0.8,0.1,1.1,0.3l-0.5,1.3
							C59.1,5.1,58.8,5,58.5,5c-0.7,0-1.1,0.8-1.1,1.5V10L56,10z"/>
						<path id="Pfad_862" class="st2" d="M64.8,9.4c-0.4,0.4-1,0.7-1.7,0.7c-1.7-0.1-3-1.5-2.9-3.2c0,0,0-0.1,0-0.1
							c0-1.8,1.3-3.2,3.1-3.3c0.1,0,0.2,0,0.3,0c0.9,0,1.8,0.2,2.6,0.6v6c0.2,1.5-0.9,2.8-2.4,3c-0.2,0-0.4,0-0.6,0
							c-1,0-1.9-0.2-2.8-0.7l0.6-1.1c0.6,0.4,1.4,0.6,2.1,0.6c0.8,0.1,1.5-0.5,1.6-1.3c0-0.1,0-0.2,0-0.3L64.8,9.4z M64.8,5.1
							c-0.4-0.2-0.7-0.2-1.1-0.3c-1,0-1.9,0.7-1.9,1.8c0,0.1,0,0.2,0,0.3c0,0.9,0.5,2,1.6,2c0.6,0,1.1-0.3,1.4-0.7L64.8,5.1z"/>
					</g>
					<g id="Gruppe_415" transform="translate(49.623 27.073)">
						<g id="Gruppe_408" transform="translate(40.15 20.461)">
							<g id="Gruppe_407">
								<path id="Pfad_863" class="st2" d="M39,77.9C17.5,77.9,0,60.5,0,39C0,17.5,17.5,0,39,0c21.5,0,38.9,17.5,39,39
									C77.9,60.5,60.5,77.9,39,77.9z M39,3.3C19.3,3.3,3.3,19.3,3.3,39c0,19.7,16,35.6,35.7,35.7c19.7,0,35.6-16,35.7-35.7
									C74.6,19.3,58.6,3.3,39,3.3z"/>
							</g>
						</g>
						<g id="Gruppe_410" transform="translate(20.074)">
							<g id="Gruppe_409">
								<path id="Pfad_864" class="st2" d="M39,77.9C17.5,77.9,0,60.5,0,39C0,17.5,17.5,0,39,0c21.5,0,38.9,17.5,39,39
									C77.9,60.5,60.5,77.9,39,77.9z M39,3.3C19.3,3.3,3.3,19.3,3.3,39c0,19.7,16,35.6,35.7,35.7c19.7,0,35.6-16,35.7-35.7
									C74.6,19.3,58.6,3.3,39,3.3L39,3.3z"/>
							</g>
						</g>
						<g id="Gruppe_412" transform="translate(0 20.461)">
							<g id="Gruppe_411">
								<path id="Pfad_865" class="st2" d="M39,77.9C17.5,77.9,0,60.5,0,39C0,17.5,17.5,0,39,0c21.5,0,38.9,17.5,39,39
									C77.9,60.5,60.5,77.9,39,77.9z M39,3.3C19.3,3.3,3.3,19.3,3.3,39c0,19.7,16,35.6,35.7,35.7c19.7,0,35.6-16,35.7-35.7
									C74.6,19.3,58.6,3.3,39,3.3z"/>
							</g>
						</g>
						<g id="Gruppe_414" transform="translate(20.074 40.15)">
							<g id="Gruppe_413">
								<path id="Pfad_866" class="st2" d="M39,77.9C17.5,77.9,0,60.5,0,39C0,17.5,17.5,0,39,0c21.5,0,38.9,17.5,39,39
									C77.9,60.5,60.5,77.9,39,77.9z M39,3.3C19.3,3.3,3.3,19.3,3.3,39c0,19.7,16,35.6,35.7,35.7c19.7,0,35.6-16,35.7-35.7
									C74.6,19.3,58.6,3.3,39,3.3L39,3.3z"/>
							</g>
						</g>
					</g>
				</g>
			</g>
			<g id="Gruppe_418" transform="translate(159.657 -761.338)">
				<path id="Pfad_867" class="st1" d="M9.4,9.8L8.9,5.1c0-0.2,0-0.4,0-0.5C8.8,4.8,8.7,4.9,8.6,5.1l-3.1,5.1L2.5,5.1
					C2.4,4.9,2.3,4.8,2.2,4.6c0,0.2,0,0.3,0,0.5L1.7,9.8H0l1.2-9.7L5.4,7c0.1,0.1,0.1,0.2,0.1,0.4h0c0-0.1,0.1-0.3,0.2-0.4l4.1-6.8
					l1.2,9.7H9.4z"/>
				<path id="Pfad_868" class="st1" d="M12.7,9.8V0.4h1.6v9.4L12.7,9.8z"/>
				<path id="Pfad_869" class="st1" d="M16.4,9.8V0.4h5.5v1.4H18v2.2h3.1v1.4H18v2.8h4.3v1.4L16.4,9.8z"/>
				<path id="Pfad_870" class="st1" d="M25.8,9.8v-8H23V0.4h7.1v1.4h-2.8v8H25.8z"/>
				<path id="Pfad_871" class="st1" d="M37,3.8l-3,6.4l-3.8-9.9H32l2.1,5.8c0,0.2,0.1,0.3,0.1,0.5c0-0.2,0-0.3,0.1-0.5L37,0l2.7,6.2
					c0.1,0.1,0.1,0.3,0.1,0.4c0-0.2,0-0.3,0.1-0.4L42,0.4h1.7l-3.7,9.9L37,3.8z"/>
				<path id="Pfad_872" class="st1" d="M49.1,10c-2.8,0.1-5.1-2.1-5.1-4.9c0.1-2.8,2.4-5,5.1-4.9c2.7-0.1,5,2.1,5.1,4.8
					c0,0,0,0.1,0,0.1C54.2,7.9,51.9,10.1,49.1,10z M49.1,1.6c-1.9,0-3.4,1.5-3.5,3.4c0,0,0,0,0,0c0,1.9,1.5,3.4,3.4,3.5
					c1.9,0,3.5-1.5,3.5-3.4c0,0,0,0,0-0.1C52.6,3.2,51.1,1.7,49.1,1.6C49.2,1.6,49.2,1.6,49.1,1.6L49.1,1.6z"/>
				<path id="Pfad_873" class="st1" d="M61.9,9.8V5.7h-4.5v4.1h-1.6V0.4h1.6v3.9h4.5V0.4h1.6v9.4L61.9,9.8z"/>
				<path id="Pfad_874" class="st1" d="M67.1,3.8l0,6h-1.6l0-9.7l7,6.5l0-6.2h1.6l0,9.8L67.1,3.8z"/>
				<path id="Pfad_875" class="st1" d="M82.2,0.4h1.6v8.3c-1,1-2.4,1.4-3.8,1.3c-2.4,0-3.8-1.2-3.8-3.7v-6h1.6v5.1
					c0,2.3,0.6,3.1,2.5,3.1c0.7,0,1.4-0.2,1.9-0.5L82.2,0.4z"/>
				<path id="Pfad_876" class="st1" d="M87.5,3.8l0,6h-1.6l0-9.7l7,6.5l0-6.2h1.6l0,9.8L87.5,3.8z"/>
				<path id="Pfad_877" class="st1" d="M101.7,6.2V4.9h4.1c0,3.7-2.3,5.2-4.6,5.2c-2.7,0.1-5-2.1-5.1-4.8c0,0,0-0.1,0-0.1
					c0-2.7,2.2-5,5-5c0,0,0.1,0,0.1,0c1.3,0,2.6,0.4,3.6,1.3l-0.8,1.2c-0.8-0.7-1.8-1-2.8-1c-1.8,0-3.4,1.4-3.4,3.3
					c0,0.1,0,0.2,0,0.3c0,1.9,1.5,3.4,3.4,3.4c1.5,0.1,2.7-0.9,2.9-2.4L101.7,6.2z"/>
				<path id="Pfad_878" class="st1" d="M107.2,9.8V0.4h5.5v1.4h-3.9v2.2h3.1v1.4h-3.1v2.8h4.3v1.4L107.2,9.8z"/>
				<path id="Pfad_879" class="st1" d="M116.1,3.8l0,6h-1.6l0-9.7l7,6.5l0-6.2h1.6l0,9.8L116.1,3.8z"/>
			</g>
		</g>
	</g>
</g>
</svg>
