<?xml version="1.0" encoding="utf-8"?>
<!-- Generator: Adobe Illustrator 24.3.0, SVG Export Plug-In . SVG Version: 6.00 Build 0)  -->
<svg version="1.1" id="Ebene_1" xmlns="http://www.w3.org/2000/svg" xmlns:xlink="http://www.w3.org/1999/xlink" x="0px" y="0px"
	 viewBox="0 0 272 272" style="enable-background:new 0 0 272 272;" xml:space="preserve">
<style type="text/css">
	.st0{fill:#00605B;}
	.st1{fill:#FFFFFF;}
</style>
<g>
	<g id="Gruppe_736" transform="translate(-85.575 742.058)">
		<g id="Gruppe_386" transform="translate(112.575 -726.059)">
			<rect id="Rechteck_1465" x="2.7" y="2.7" class="st0" width="213.2" height="213.2"/>
			<g id="Gruppe_385">
				<path id="Pfad_757" class="st1" d="M218.6,218.6H0V0h218.6V218.6z M3.3,215.3h212V3.3H3.3V215.3z"/>
				<g id="Gruppe_374" transform="translate(29.287 161.121)">
					<path id="Pfad_758" class="st1" d="M10.1,11.2V8.8h7.4c-0.1,6.6-4.1,9.3-8.3,9.3c-4.9,0.1-9-3.8-9.2-8.7c0,0,0-0.1,0-0.1
						c0-4.9,4-9,8.9-9c0.1,0,0.1,0,0.2,0c2.4-0.1,4.7,0.7,6.5,2.3l-1.5,2.2c-1.4-1.2-3.2-1.9-5-1.8C5.9,2.9,3.1,5.5,3,8.8
						c0,0.2,0,0.3,0,0.5c0,3.4,2.7,6.2,6.1,6.2c2.9,0,5.1-1.8,5.3-4.3L10.1,11.2z"/>
					<path id="Pfad_759" class="st1" d="M32.4,17.7l-1.5-3.3H23l-1.5,3.3h-3.2L27,0l8.7,17.7H32.4z M27.2,6.5C27.1,6.2,27,6,27,5.7
						c-0.1,0.3-0.2,0.5-0.3,0.8l-2.4,5.3h5.5L27.2,6.5z"/>
					<path id="Pfad_760" class="st1" d="M46.8,17.7L41,11.4h-0.4v6.3h-2.9v-17h3.6c3.1,0,7.2,0.8,7.2,5.3c-0.1,2.5-1.9,4.6-4.4,5
						l6.7,6.7H46.8z M41.7,8.9c2.5,0,3.8-1.3,3.8-2.8c0-1.8-1.1-2.8-3.6-2.8h-1.3v5.6H41.7z"/>
					<path id="Pfad_761" class="st1" d="M55.7,17.7V3.3h-5V0.7h12.9v2.6h-5v14.4H55.7z"/>
					<path id="Pfad_762" class="st1" d="M66.3,17.7V0.7h9.8v2.6h-7v4h5.6V10h-5.6v5.1h7.7v2.6L66.3,17.7z"/>
					<path id="Pfad_763" class="st1" d="M82.9,6.9l0,10.8h-2.9l0-17.5l12.6,11.6l0-11.2h2.9l0,17.6L82.9,6.9z"/>
					<path id="Pfad_764" class="st1" d="M99.8,17.7v-17h3.7c4,0,7.1,1.3,7.1,5.4c0,3.4-2.1,5.7-6.7,5.7h-1.2v5.8H99.8z M103.8,9.2
						c2.5,0,3.7-1.3,3.7-3.1c0-1.7-1.1-2.8-3.3-2.8h-1.6v5.9L103.8,9.2z"/>
					<path id="Pfad_765" class="st1" d="M125.7,17.7l-1.5-3.3h-7.9l-1.5,3.3h-3.2L120.2,0l8.7,17.7H125.7z M120.5,6.5
						c-0.1-0.3-0.2-0.5-0.3-0.8c-0.1,0.3-0.2,0.5-0.3,0.8l-2.4,5.3h5.5L120.5,6.5z"/>
					<path id="Pfad_766" class="st1" d="M140,17.7l-5.8-6.3h-0.4v6.3h-2.9v-17h3.6c3.1,0,7.2,0.8,7.2,5.3c-0.1,2.5-1.9,4.6-4.4,5
						l6.7,6.7H140z M134.9,8.9c2.5,0,3.8-1.3,3.8-2.8c0-1.8-1.1-2.8-3.6-2.8h-1.3v5.6H134.9z"/>
					<path id="Pfad_767" class="st1" d="M155.8,17.7l-7.5-6.9v6.9h-2.9v-17h2.9v6.9l6.4-6.9h3.7L150.3,9l9.7,8.7H155.8z"/>
				</g>
				<g id="Gruppe_375" transform="translate(75.991 182.891)">
					<path id="Pfad_768" class="st1" d="M5.6,10L1.6,6.3V10H0V0.8h1.6v3.8l3.5-3.8h2L2.6,5.3L7.9,10H5.6z"/>
					<path id="Pfad_769" class="st1" d="M11.3,10.2C9.5,10.3,8,8.8,8,7C8,7,8,7,8,7c0-1.8,1.5-3.3,3.3-3.3c0,0,0.1,0,0.1,0
						c1.8,0,3.3,1.4,3.3,3.2c0,0,0,0,0,0C14.7,8.8,13.2,10.2,11.3,10.2C11.3,10.2,11.3,10.2,11.3,10.2z M13.1,7c0.1-1-0.7-2-1.7-2.1
						c0,0-0.1,0-0.1,0c-1.1,0-1.9,0.9-1.9,1.9c0,0.1,0,0.1,0,0.2c-0.1,1.1,0.8,2,1.8,2c0,0,0,0,0,0c1,0,1.8-0.8,1.8-1.8
						C13.2,7.1,13.1,7.1,13.1,7L13.1,7z"/>
					<path id="Pfad_770" class="st1" d="M15.9,10V3.9h1.4v1c0.1-0.3,0.6-1.1,1.3-1.1c0.4,0,0.8,0.1,1.1,0.3l-0.5,1.3
						C19,5.2,18.7,5.1,18.4,5c-0.7,0-1.1,0.8-1.1,1.6V10L15.9,10z"/>
					<path id="Pfad_771" class="st1" d="M24.7,10V6.7c0-1.1-0.2-1.7-1.2-1.7c-0.5,0-1.1,0.3-1.4,0.7V10h-1.4V3.9h1.4v0.6
						c0.5-0.5,1.2-0.8,2-0.8c1.4,0,2.1,0.7,2.1,2.2V10L24.7,10z"/>
					<path id="Pfad_772" class="st1" d="M33.4,9.4c-0.8,0.6-1.7,0.8-2.6,0.8c-1.7,0.2-3.3-1.1-3.4-2.8c0-0.1,0-0.3,0-0.4
						c-0.1-1.7,1.2-3.2,3-3.3c0.1,0,0.2,0,0.3,0c1.6,0,3,1.2,3,2.9c0,0.1,0,0.2,0,0.4v0.6h-4.8C29,8.3,29.7,9,31,9
						c0.7,0,1.4-0.2,1.9-0.6L33.4,9.4z M32.1,6.3c0-0.8-0.6-1.5-1.5-1.5c0,0,0,0-0.1,0c-0.9,0-1.6,0.6-1.7,1.5H32.1z"/>
					<path id="Pfad_773" class="st1" d="M38.9,3.9h1.4v5.5c-0.8,0.6-1.8,0.9-2.7,0.9c-1.6,0-2.8-0.8-2.8-2.4v-4h1.4v3.6
						c0,1.2,0.7,1.6,1.5,1.6c0.4,0,0.8-0.1,1.2-0.3L38.9,3.9z"/>
					<path id="Pfad_774" class="st1" d="M41.9,0h1.4v4.2c0.6-0.4,1.2-0.5,1.9-0.6C47,3.7,48,5.3,48,6.9c0,1.8-1.4,3.3-3.2,3.3
						c-0.1,0-0.2,0-0.3,0c-0.9,0-1.9-0.3-2.6-0.8V0z M43.3,8.7C43.7,8.9,44.1,9,44.5,9c1,0,1.9-0.8,2-1.8c0-0.1,0-0.2,0-0.3
						c0-1.1-0.6-2-1.6-2c-0.6,0-1.1,0.2-1.5,0.6L43.3,8.7z"/>
					<path id="Pfad_775" class="st1" d="M53.3,3.9h1.4v5.5C54,10,53,10.3,52,10.2c-1.6,0-2.8-0.8-2.8-2.4v-4h1.4v3.6
						c0,1.2,0.7,1.6,1.5,1.6c0.4,0,0.8-0.1,1.2-0.3L53.3,3.9z"/>
					<path id="Pfad_776" class="st1" d="M56.3,10V3.9h1.4v1c0.1-0.3,0.6-1.1,1.3-1.1c0.4,0,0.8,0.1,1.1,0.3l-0.5,1.3
						c-0.2-0.2-0.5-0.3-0.8-0.3c-0.7,0-1.1,0.8-1.1,1.6V10L56.3,10z"/>
					<path id="Pfad_777" class="st1" d="M65.2,9.5c-0.4,0.5-1,0.7-1.7,0.7c-1.7-0.1-3-1.5-2.9-3.2c0,0,0-0.1,0-0.1
						c0-1.8,1.4-3.2,3.1-3.3c0.1,0,0.2,0,0.3,0c0.9,0,1.8,0.2,2.6,0.6v6c0.2,1.5-0.9,2.9-2.4,3c-0.2,0-0.4,0-0.6,0
						c-1,0-2-0.2-2.8-0.7l0.6-1.1c0.6,0.4,1.4,0.7,2.2,0.6c0.8,0.1,1.5-0.5,1.6-1.3c0-0.1,0-0.2,0-0.3V9.5z M65.2,5.1
						c-0.4-0.2-0.7-0.2-1.1-0.3c-1,0-1.9,0.7-1.9,1.8c0,0.1,0,0.2,0,0.3c0,0.9,0.5,2.1,1.7,2.1c0.6,0,1.1-0.3,1.4-0.7V5.1z"/>
				</g>
				<g id="Gruppe_384" transform="translate(49.927 27.239)">
					<g id="Gruppe_377" transform="translate(40.395 20.586)">
						<g id="Gruppe_376">
							<path id="Pfad_778" class="st1" d="M39.2,78.4C17.6,78.4,0,60.8,0,39.2C0,17.6,17.6,0,39.2,0c21.6,0,39.2,17.6,39.2,39.2
								C78.4,60.8,60.8,78.4,39.2,78.4z M39.2,3.3C19.4,3.3,3.3,19.4,3.3,39.2C3.3,59,19.4,75,39.2,75.1C59,75,75,59,75.1,39.2
								C75,19.4,59,3.3,39.2,3.3L39.2,3.3z"/>
						</g>
					</g>
					<g id="Gruppe_379" transform="translate(20.197)">
						<g id="Gruppe_378">
							<path id="Pfad_779" class="st1" d="M39.2,78.4C17.6,78.4,0,60.8,0,39.2C0,17.6,17.6,0,39.2,0c21.6,0,39.2,17.6,39.2,39.2
								C78.4,60.8,60.8,78.4,39.2,78.4z M39.2,3.3C19.4,3.3,3.3,19.4,3.3,39.2C3.3,59,19.4,75,39.2,75.1C59,75,75,59,75.1,39.2
								C75,19.4,59,3.3,39.2,3.3L39.2,3.3z"/>
						</g>
					</g>
					<g id="Gruppe_381" transform="translate(0 20.586)">
						<g id="Gruppe_380">
							<path id="Pfad_780" class="st1" d="M39.2,78.4C17.6,78.4,0,60.8,0,39.2C0,17.6,17.6,0,39.2,0c21.6,0,39.2,17.6,39.2,39.2
								C78.4,60.8,60.8,78.4,39.2,78.4z M39.2,3.3C19.4,3.3,3.3,19.4,3.3,39.2C3.3,59,19.4,75,39.2,75.1C59,75,75,59,75.1,39.2
								C75,19.4,59,3.3,39.2,3.3L39.2,3.3z"/>
						</g>
					</g>
					<g id="Gruppe_383" transform="translate(20.197 40.395)">
						<g id="Gruppe_382">
							<path id="Pfad_781" class="st1" d="M39.2,78.4C17.6,78.4,0,60.8,0,39.2C0,17.6,17.6,0,39.2,0c21.6,0,39.2,17.6,39.2,39.2
								C78.4,60.8,60.8,78.4,39.2,78.4z M39.2,3.3C19.4,3.3,3.3,19.4,3.3,39.2C3.3,59,19.4,75,39.2,75.1C59,75,75,59,75.1,39.2
								C75,19.4,59,3.3,39.2,3.3L39.2,3.3z"/>
						</g>
					</g>
				</g>
			</g>
		</g>
		<g id="Gruppe_387" transform="translate(170.743 -499.024)">
			<path id="Pfad_782" class="st0" d="M7.7,11.9l-0.8-1.8H2.6l-0.8,1.8H0l4.7-9.6l4.7,9.6H7.7z M3,1.7c-0.5,0-0.9-0.4-0.9-0.8
				C2.1,0.4,2.5,0,3,0C3.5,0,3.9,0.3,4,0.8c0,0,0,0,0,0C3.9,1.3,3.5,1.7,3,1.7L3,1.7z M4.9,5.9C4.8,5.7,4.7,5.6,4.7,5.4
				c0,0.2-0.1,0.3-0.2,0.4L3.2,8.7h3L4.9,5.9z M6.2,1.7c-0.5,0-0.9-0.3-0.9-0.8c0,0,0,0,0,0C5.3,0.4,5.7,0,6.2,0c0,0,0,0,0,0
				c0.5-0.1,0.9,0.3,0.9,0.8c0,0,0,0.1,0,0.1C7.2,1.3,6.8,1.7,6.2,1.7C6.3,1.7,6.3,1.7,6.2,1.7L6.2,1.7z"/>
			<path id="Pfad_783" class="st0" d="M15.2,11.9l-3.1-3.4h-0.2v3.4h-1.6V2.7h1.9c1.7,0,3.9,0.4,3.9,2.8c0,1.4-1.1,2.5-2.4,2.7
				l3.6,3.6L15.2,11.9z M12.5,7.2c1.4,0,2.1-0.7,2.1-1.5c0-1-0.6-1.5-2-1.5h-0.7v3H12.5z"/>
			<path id="Pfad_784" class="st0" d="M17.4,11.9l5.2-7.8h-4.1V2.7h6.8l-5.2,7.8h5.2v1.4L17.4,11.9z"/>
			<path id="Pfad_785" class="st0" d="M28.7,11.9V4.2H26V2.7h7v1.4h-2.7v7.8L28.7,11.9z"/>
			<path id="Pfad_786" class="st0" d="M34.2,11.9V2.7h5.3v1.4h-3.8v2.2h3v1.4h-3v2.8h4.2v1.4L34.2,11.9z"/>
			<path id="Pfad_787" class="st0" d="M40.4,11.9l5.2-7.8h-4.1V2.7h6.8l-5.2,7.8h5.2v1.4L40.4,11.9z"/>
			<path id="Pfad_788" class="st0" d="M49.8,11.9V2.7h5.3v1.4h-3.8v2.2h3v1.4h-3v2.8h4.2v1.4L49.8,11.9z"/>
			<path id="Pfad_789" class="st0" d="M58.5,6.1l0,5.8H57l0-9.5l6.8,6.3l0-6.1h1.6l0,9.6L58.5,6.1z"/>
			<path id="Pfad_790" class="st0" d="M69.3,11.9V4.2h-2.7V2.7h7v1.4h-2.7v7.8L69.3,11.9z"/>
			<path id="Pfad_791" class="st0" d="M79.8,11.9l-3.1-3.4h-0.2v3.4h-1.6V2.7h1.9c1.7,0,3.9,0.4,3.9,2.8c0,1.4-1.1,2.5-2.4,2.7
				l3.6,3.6L79.8,11.9z M77,7.2c1.4,0,2.1-0.7,2.1-1.5c0-1-0.6-1.5-1.9-1.5h-0.7v3H77z"/>
			<path id="Pfad_792" class="st0" d="M88.3,2.7h1.6v8.1c-1,0.9-2.4,1.4-3.7,1.3c-2.4,0-3.7-1.2-3.7-3.6V2.7H84v5
				c0,2.3,0.5,3.1,2.4,3.1c0.7,0,1.3-0.2,1.9-0.5L88.3,2.7z"/>
			<path id="Pfad_793" class="st0" d="M100.6,11.9l-0.5-4.6c0-0.2,0-0.3,0-0.5c-0.1,0.2-0.2,0.3-0.3,0.5l-3,5l-3-5
				c-0.1-0.2-0.2-0.3-0.3-0.5c0,0.2,0,0.3,0,0.5l-0.5,4.6h-1.7l1.2-9.5l4,6.7c0.1,0.1,0.1,0.2,0.1,0.4h0c0-0.1,0.1-0.3,0.2-0.4
				l4-6.7l1.2,9.5H100.6z"/>
		</g>
	</g>
</g>
</svg>
