<?xml version="1.0" encoding="utf-8"?>
<!-- Generator: Adobe Illustrator 24.3.0, SVG Export Plug-In . SVG Version: 6.00 Build 0)  -->
<svg version="1.1" id="Ebene_1" xmlns="http://www.w3.org/2000/svg" xmlns:xlink="http://www.w3.org/1999/xlink" x="0px" y="0px"
	 viewBox="0 0 272 272" style="enable-background:new 0 0 272 272;" xml:space="preserve">
<style type="text/css">
	.st0{fill:#AF9E86;}
	.st1{fill:#FFFFFF;}
</style>
<g>
	<g id="Gruppe_402" transform="translate(112.575 -209.039)">
		<rect id="Rechteck_1466" x="-82.9" y="228.8" class="st0" width="211.9" height="211.9"/>
		<g id="Gruppe_401">
			<path id="Pfad_794" class="st1" d="M131.7,443.3H-85.6V226h217.3V443.3z M-82.3,440h210.7V229.3H-82.3L-82.3,440z"/>
			<g id="Gruppe_390" transform="translate(29.108 160.14)">
				<path id="Pfad_795" class="st1" d="M-75.5,237.2v-2.4h7.3c-0.1,6.6-4.1,9.3-8.3,9.3c-4.9,0.1-9-3.7-9.1-8.6c0,0,0-0.1,0-0.1
					c0-4.9,4-8.9,8.9-8.9c0.1,0,0.1,0,0.2,0c2.4-0.1,4.7,0.7,6.5,2.3l-1.4,2.1c-1.4-1.2-3.2-1.9-5-1.8c-3.3-0.1-6,2.6-6.1,5.9
					c0,0.2,0,0.3,0,0.5c0,3.4,2.7,6.1,6.1,6.2c2.9,0,5.1-1.8,5.3-4.3L-75.5,237.2z"/>
				<path id="Pfad_796" class="st1" d="M-53.3,243.6l-1.5-3.3h-7.8l-1.5,3.3h-3.2l8.7-17.6l8.6,17.6H-53.3z M-58.5,232.5
					c-0.1-0.3-0.2-0.5-0.3-0.8c-0.1,0.3-0.2,0.5-0.3,0.8l-2.4,5.2h5.5L-58.5,232.5z"/>
				<path id="Pfad_797" class="st1" d="M-39.1,243.6l-5.7-6.2h-0.4v6.2h-2.9v-16.9h3.6c3.1,0,7.2,0.8,7.2,5.2
					c-0.1,2.5-1.9,4.6-4.4,5l6.7,6.7L-39.1,243.6z M-44.1,234.9c2.5,0,3.8-1.3,3.8-2.8c0-1.8-1.1-2.8-3.6-2.8h-1.3v5.6L-44.1,234.9z
					"/>
				<path id="Pfad_798" class="st1" d="M-30.2,243.6v-14.3h-5v-2.6h12.8v2.6h-5v14.3H-30.2z"/>
				<path id="Pfad_799" class="st1" d="M-19.6,243.6v-16.8h9.8v2.6h-6.9v4h5.6v2.6h-5.6v5.1h7.6v2.6H-19.6z"/>
				<path id="Pfad_800" class="st1" d="M-3.2,232.9l0,10.7H-6l0-17.4l12.5,11.6l0-11.1h2.9l0,17.5L-3.2,232.9z"/>
				<path id="Pfad_801" class="st1" d="M13.6,243.6v-16.9h3.7c4,0,7.1,1.3,7.1,5.4c0,3.4-2.1,5.7-6.7,5.7h-1.2v5.8L13.6,243.6z
					 M17.6,235.2c2.5,0,3.7-1.3,3.7-3.1c0-1.7-1.1-2.8-3.3-2.8h-1.6v5.9H17.6z"/>
				<path id="Pfad_802" class="st1" d="M39.3,243.6l-1.5-3.3H30l-1.5,3.3h-3.2l8.7-17.6l8.6,17.6H39.3z M34.2,232.5
					c-0.1-0.3-0.2-0.5-0.3-0.8c-0.1,0.3-0.2,0.5-0.3,0.8l-2.4,5.2h5.5L34.2,232.5z"/>
				<path id="Pfad_803" class="st1" d="M53.6,243.6l-5.7-6.2h-0.4v6.2h-2.9v-16.9h3.6c3.1,0,7.2,0.8,7.2,5.2c-0.1,2.5-1.9,4.6-4.4,5
					l6.7,6.7L53.6,243.6z M48.5,234.9c2.5,0,3.8-1.3,3.8-2.8c0-1.8-1.1-2.8-3.6-2.8h-1.3v5.6L48.5,234.9z"/>
				<path id="Pfad_804" class="st1" d="M69.3,243.6l-7.4-6.8v6.8H59v-16.9h2.9v6.9l6.4-6.9H72l-8.1,8.3l9.7,8.6H69.3z"/>
			</g>
			<g id="Gruppe_391" transform="translate(75.529 181.78)">
				<path id="Pfad_805" class="st1" d="M-80,236l-4.1-3.7v3.7h-1.6v-9.2h1.6v3.8l3.5-3.8h2l-4.4,4.5l5.3,4.7L-80,236z"/>
				<path id="Pfad_806" class="st1" d="M-74.3,236.2c-1.8,0-3.3-1.4-3.3-3.2c0,0,0,0,0-0.1c0-1.8,1.5-3.3,3.3-3.3c0,0,0.1,0,0.1,0
					c1.8,0,3.3,1.4,3.3,3.2c0,0,0,0,0,0C-71,234.8-72.5,236.2-74.3,236.2C-74.3,236.2-74.3,236.2-74.3,236.2z M-72.5,233
					c0.1-1-0.7-2-1.7-2.1c0,0-0.1,0-0.1,0c-1,0-1.9,0.9-1.9,1.9c0,0.1,0,0.1,0,0.2c-0.1,1.1,0.7,2,1.8,2c0,0,0,0,0,0
					c1,0,1.8-0.8,1.8-1.8C-72.5,233.1-72.5,233-72.5,233L-72.5,233z"/>
				<path id="Pfad_807" class="st1" d="M-69.8,236v-6.1h1.4v0.9c0.1-0.3,0.6-1.1,1.3-1.1c0.4,0,0.8,0.1,1.1,0.3l-0.5,1.3
					c-0.2-0.2-0.5-0.3-0.8-0.3c-0.7,0-1.1,0.8-1.1,1.5v3.4L-69.8,236z"/>
				<path id="Pfad_808" class="st1" d="M-61,236v-3.3c0-1.1-0.2-1.7-1.2-1.7c-0.5,0-1.1,0.3-1.4,0.7v4.3H-65v-6.1h1.4v0.6
					c0.5-0.5,1.2-0.8,2-0.8c1.3,0,2.1,0.7,2.1,2.2v4.1L-61,236z"/>
				<path id="Pfad_809" class="st1" d="M-52.4,235.4c-0.7,0.6-1.7,0.8-2.6,0.8c-1.7,0.2-3.2-1.1-3.4-2.8c0-0.1,0-0.3,0-0.4
					c-0.1-1.7,1.2-3.2,2.9-3.3c0.1,0,0.2,0,0.3,0c1.6,0,3,1.2,3,2.8c0,0.1,0,0.2,0,0.3v0.6h-4.7c0.1,0.8,0.8,1.5,2.2,1.5
					c0.7,0,1.4-0.2,1.9-0.6L-52.4,235.4z M-53.7,232.3c0-0.8-0.6-1.5-1.5-1.5c0,0,0,0-0.1,0c-0.9,0-1.6,0.6-1.7,1.5H-53.7z"/>
				<path id="Pfad_810" class="st1" d="M-46.9,229.9h1.4v5.5c-0.8,0.6-1.7,0.9-2.7,0.9c-1.6,0-2.8-0.8-2.8-2.4v-3.9h1.4v3.6
					c0,1.2,0.7,1.5,1.5,1.5c0.4,0,0.8-0.1,1.1-0.3L-46.9,229.9z"/>
				<path id="Pfad_811" class="st1" d="M-44,226h1.4v4.2c0.5-0.4,1.2-0.5,1.8-0.5c1.6,0,2.9,1.4,2.8,3c0,0.1,0,0.1,0,0.2
					c0,1.8-1.4,3.3-3.2,3.3c-0.1,0-0.2,0-0.3,0c-0.9,0-1.8-0.3-2.6-0.8L-44,226z M-42.5,234.7c0.4,0.2,0.8,0.3,1.2,0.3
					c1,0,1.9-0.8,2-1.8c0-0.1,0-0.2,0-0.3c0-1.1-0.6-2-1.6-2c-0.6,0-1.1,0.2-1.5,0.6V234.7z"/>
				<path id="Pfad_812" class="st1" d="M-32.6,229.9h1.4v5.5c-0.8,0.6-1.7,0.9-2.7,0.9c-1.6,0-2.8-0.8-2.8-2.4v-3.9h1.4v3.6
					c0,1.2,0.7,1.5,1.5,1.5c0.4,0,0.8-0.1,1.1-0.3L-32.6,229.9z"/>
				<path id="Pfad_813" class="st1" d="M-29.6,236v-6.1h1.4v0.9c0.1-0.3,0.6-1.1,1.3-1.1c0.4,0,0.8,0.1,1.1,0.3l-0.5,1.3
					c-0.2-0.2-0.5-0.3-0.8-0.3c-0.7,0-1.1,0.8-1.1,1.5v3.4L-29.6,236z"/>
				<path id="Pfad_814" class="st1" d="M-20.8,235.5c-0.4,0.4-1,0.7-1.7,0.7c-1.7-0.1-3-1.5-2.9-3.2c0,0,0-0.1,0-0.1
					c0-1.8,1.3-3.2,3.1-3.3c0.1,0,0.2,0,0.3,0c0.9,0,1.8,0.2,2.6,0.6v6c0.2,1.5-0.9,2.8-2.4,3c-0.2,0-0.4,0-0.6,0
					c-1,0-1.9-0.2-2.8-0.7l0.6-1.1c0.6,0.4,1.4,0.6,2.1,0.6c0.8,0.1,1.5-0.5,1.6-1.3c0-0.1,0-0.2,0-0.3L-20.8,235.5z M-20.8,231.1
					c-0.4-0.2-0.7-0.2-1.1-0.3c-1,0-1.9,0.7-1.9,1.8c0,0.1,0,0.2,0,0.3c0,0.9,0.5,2,1.6,2c0.6,0,1.1-0.3,1.4-0.7L-20.8,231.1z"/>
			</g>
			<g id="Gruppe_400" transform="translate(49.623 27.073)">
				<g id="Gruppe_393" transform="translate(40.15 20.461)">
					<g id="Gruppe_392">
						<path id="Pfad_815" class="st1" d="M-46.6,304c-21.5,0-38.9-17.5-39-39c0-21.5,17.5-38.9,39-39c21.5,0,38.9,17.5,39,39
							C-7.7,286.5-25.1,303.9-46.6,304z M-46.6,229.3c-19.7,0-35.6,16-35.7,35.7c0,19.7,16,35.6,35.7,35.7c19.7,0,35.6-16,35.7-35.7
							C-11,245.3-26.9,229.4-46.6,229.3z"/>
					</g>
				</g>
				<g id="Gruppe_395" transform="translate(20.074)">
					<g id="Gruppe_394">
						<path id="Pfad_816" class="st1" d="M-46.6,304c-21.5,0-38.9-17.5-39-39c0-21.5,17.5-38.9,39-39c21.5,0,38.9,17.5,39,39
							C-7.7,286.5-25.1,303.9-46.6,304z M-46.6,229.3c-19.7,0-35.6,16-35.7,35.7c0,19.7,16,35.6,35.7,35.7c19.7,0,35.6-16,35.7-35.7
							C-11,245.3-26.9,229.4-46.6,229.3L-46.6,229.3z"/>
					</g>
				</g>
				<g id="Gruppe_397" transform="translate(0 20.461)">
					<g id="Gruppe_396">
						<path id="Pfad_817" class="st1" d="M-46.6,304c-21.5,0-38.9-17.5-39-39c0-21.5,17.5-38.9,39-39c21.5,0,38.9,17.5,39,39
							C-7.7,286.5-25.1,303.9-46.6,304z M-46.6,229.3c-19.7,0-35.6,16-35.7,35.7c0,19.7,16,35.6,35.7,35.7c19.7,0,35.6-16,35.7-35.7
							C-11,245.3-26.9,229.4-46.6,229.3z"/>
					</g>
				</g>
				<g id="Gruppe_399" transform="translate(20.074 40.15)">
					<g id="Gruppe_398">
						<path id="Pfad_818" class="st1" d="M-46.6,304c-21.5,0-38.9-17.5-39-39c0-21.5,17.5-38.9,39-39c21.5,0,38.9,17.5,39,39
							C-7.7,286.5-25.1,303.9-46.6,304z M-46.6,229.3c-19.7,0-35.6,16-35.7,35.7c0,19.7,16,35.6,35.7,35.7c19.7,0,35.6-16,35.7-35.7
							C-11,245.3-26.9,229.4-46.6,229.3z"/>
					</g>
				</g>
			</g>
		</g>
	</g>
	<g id="Gruppe_403" transform="translate(115.779 19.018)">
		<path id="Pfad_819" class="st0" d="M-79.8,235.9L-84,232v3.8h-1.6v-9.4h1.6v3.8l3.6-3.8h2.1l-4.5,4.6l5.4,4.8H-79.8z"/>
		<path id="Pfad_820" class="st0" d="M-72.9,236.1c-2.8,0.1-5.1-2.1-5.1-4.9c0.1-2.8,2.4-5,5.1-4.9c2.7-0.1,5,2.1,5.1,4.8
			c0,0,0,0.1,0,0.1C-67.9,233.9-70.1,236.1-72.9,236.1z M-72.9,227.7c-1.9,0-3.4,1.5-3.5,3.4c0,0,0,0,0,0c0,1.9,1.5,3.4,3.4,3.5
			c1.9,0,3.5-1.5,3.5-3.4c0,0,0,0,0-0.1C-69.4,229.3-70.9,227.7-72.9,227.7C-72.9,227.7-72.9,227.7-72.9,227.7L-72.9,227.7z"/>
		<path id="Pfad_821" class="st0" d="M-57.4,235.9l-0.5-4.7c0-0.2,0-0.4,0-0.5c-0.1,0.2-0.2,0.3-0.3,0.5l-3.1,5.1l-3.1-5.1
			c-0.1-0.2-0.2-0.3-0.3-0.5c0,0.2,0,0.4,0,0.5l-0.5,4.7h-1.7l1.2-9.7l4.1,6.8c0.1,0.1,0.1,0.2,0.1,0.4h0c0-0.1,0.1-0.3,0.2-0.4
			l4.1-6.8l1.2,9.7L-57.4,235.9z"/>
		<path id="Pfad_822" class="st0" d="M-54,235.9v-9.4h5.4v1.4h-3.8v2.3h3.1v1.5h-3.1v4.2L-54,235.9z"/>
		<path id="Pfad_823" class="st0" d="M-42.7,236.1c-2.8,0.1-5.1-2.1-5.1-4.9c0.1-2.8,2.4-5,5.1-4.9c2.7-0.1,5,2.1,5.1,4.8
			c0,0,0,0.1,0,0.1C-37.7,233.9-40,236.1-42.7,236.1z M-42.7,227.7c-1.9,0-3.4,1.5-3.5,3.4c0,0,0,0,0,0c0,1.9,1.5,3.4,3.4,3.5
			c1.9,0,3.5-1.5,3.5-3.4c0,0,0,0,0-0.1C-39.3,229.3-40.8,227.7-42.7,227.7C-42.7,227.7-42.7,227.7-42.7,227.7L-42.7,227.7z"/>
		<path id="Pfad_824" class="st0" d="M-31,235.9l-3.2-3.5h-0.2v3.5h-1.6v-9.4h2c1.7,0,4,0.4,4,2.9c-0.1,1.4-1.1,2.6-2.5,2.8l3.7,3.7
			H-31z M-33.8,231c1.4,0,2.1-0.7,2.1-1.6c0-1-0.6-1.5-2-1.5h-0.7v3.1L-33.8,231z"/>
		<path id="Pfad_825" class="st0" d="M-26.3,235.9v-8h-2.8v-1.4h7.1v1.4h-2.8v8H-26.3z"/>
		<path id="Pfad_826" class="st0" d="M-20.7,235.9v-9.4h5.4v1.4h-3.8v2.3h3.1v1.5h-3.1v4.2L-20.7,235.9z"/>
		<path id="Pfad_827" class="st0" d="M-13.9,235.8v-9.4h5.5v1.4h-3.9v2.2h3.1v1.4h-3.1v2.8H-8v1.4L-13.9,235.8z"/>
		<path id="Pfad_828" class="st0" d="M-1.5,235.9l-3.2-3.5h-0.3v3.5h-1.6v-9.4h2c1.7,0,4,0.4,4,2.9c-0.1,1.4-1.1,2.6-2.5,2.8
			l3.7,3.7H-1.5z M-4.3,231c1.4,0,2.1-0.7,2.1-1.6c0-1-0.6-1.5-2-1.5h-0.7v3.1L-4.3,231z"/>
		<path id="Pfad_829" class="st0" d="M3.3,235.9v-8H0.5v-1.4h7.1v1.4H4.9v8H3.3z"/>
		<path id="Pfad_830" class="st0" d="M8.9,235.9v-9.4h1.6v9.4H8.9z"/>
		<path id="Pfad_831" class="st0" d="M17.7,232.3v-1.4h4.1c0,3.7-2.3,5.2-4.6,5.2c-2.7,0.1-5-2.1-5.1-4.8c0,0,0,0,0-0.1
			c0-2.7,2.2-5,5-5c0,0,0.1,0,0.1,0c1.3,0,2.6,0.4,3.6,1.3l-0.8,1.2c-0.8-0.7-1.8-1-2.8-1c-1.8,0-3.4,1.4-3.4,3.3c0,0.1,0,0.2,0,0.3
			c0,1.9,1.5,3.4,3.4,3.4c1.5,0.1,2.7-0.9,2.9-2.4L17.7,232.3z"/>
		<path id="Pfad_832" class="st0" d="M23.2,235.8v-9.4h5.5v1.4h-3.9v2.2h3.1v1.4h-3.1v2.8h4.3v1.4L23.2,235.8z"/>
		<path id="Pfad_833" class="st0" d="M39.2,229.9l-3,6.4l-3.8-9.9h1.8l2.1,5.8c0,0.2,0.1,0.3,0.1,0.5c0-0.2,0-0.3,0.1-0.5l2.7-6.2
			l2.7,6.2c0.1,0.1,0.1,0.3,0.1,0.4c0-0.2,0-0.3,0.1-0.4l2.1-5.8h1.7l-3.7,9.9L39.2,229.9z"/>
		<path id="Pfad_834" class="st0" d="M51.3,236.1c-2.8,0.1-5.1-2.1-5.1-4.9c0.1-2.8,2.4-5,5.1-4.9c2.7-0.1,5,2.1,5.1,4.8
			c0,0,0,0.1,0,0.1C56.3,233.9,54.1,236.1,51.3,236.1z M51.3,227.7c-1.9,0-3.4,1.5-3.5,3.4c0,0,0,0,0,0c0,1.9,1.5,3.4,3.4,3.5
			c1.9,0,3.5-1.5,3.5-3.4c0,0,0,0,0-0.1C54.8,229.3,53.3,227.7,51.3,227.7C51.4,227.7,51.3,227.7,51.3,227.7L51.3,227.7z"/>
		<path id="Pfad_835" class="st0" d="M64.1,235.9v-4.1h-4.5v4.1H58v-9.4h1.6v3.9h4.5v-3.9h1.6v9.4L64.1,235.9z"/>
		<path id="Pfad_836" class="st0" d="M69.3,229.9l0,6h-1.6l0-9.7l7,6.5l0-6.2h1.6l0,9.8L69.3,229.9z"/>
		<path id="Pfad_837" class="st0" d="M84.4,226.4H86v8.3c-1,1-2.4,1.4-3.8,1.3c-2.4,0-3.8-1.2-3.8-3.7v-6H80v5.1
			c0,2.3,0.6,3.1,2.5,3.1c0.7,0,1.4-0.2,1.9-0.5L84.4,226.4z"/>
		<path id="Pfad_838" class="st0" d="M89.6,229.9l0,6h-1.6l0-9.7l7,6.5l0-6.2h1.6l0,9.8L89.6,229.9z"/>
		<path id="Pfad_839" class="st0" d="M103.9,232.3v-1.4h4.1c0,3.7-2.3,5.2-4.6,5.2c-2.7,0.1-5-2.1-5.1-4.8c0,0,0-0.1,0-0.1
			c0-2.7,2.2-5,5-5c0,0,0.1,0,0.1,0c1.3,0,2.6,0.4,3.6,1.3l-0.8,1.2c-0.8-0.7-1.8-1-2.8-1c-1.8,0-3.4,1.4-3.4,3.3c0,0.1,0,0.2,0,0.3
			c0,1.9,1.5,3.4,3.4,3.4c1.5,0.1,2.7-0.9,2.9-2.4L103.9,232.3z"/>
		<path id="Pfad_840" class="st0" d="M109.4,235.8v-9.4h5.5v1.4h-3.9v2.2h3.1v1.4h-3.1v2.8h4.3v1.4L109.4,235.8z"/>
		<path id="Pfad_841" class="st0" d="M118.3,229.9l0,6h-1.6l0-9.7l7,6.5l0-6.2h1.6l0,9.8L118.3,229.9z"/>
	</g>
</g>
</svg>
